<mxfile host="Electron" modified="2023-11-27T09:01:07.059Z" agent="Mozilla/5.0 (Windows NT 10.0; Win64; x64) AppleWebKit/537.36 (KHTML, like Gecko) draw.io/21.8.2 Chrome/114.0.5735.289 Electron/25.8.1 Safari/537.36" etag="DjJ5PibfAgfEvSMBzsfD" version="21.8.2" type="device" pages="3">
  <diagram name="Provisioning" id="HlEBFxBSwHhaApRulJSV">
    <mxGraphModel dx="2049" dy="2908" grid="1" gridSize="10" guides="1" tooltips="1" connect="1" arrows="1" fold="1" page="1" pageScale="1" pageWidth="2336" pageHeight="1654" math="0" shadow="0">
      <root>
        <mxCell id="CrBskSO4nDhFndBRX1B0-0" />
        <mxCell id="CrBskSO4nDhFndBRX1B0-1" parent="CrBskSO4nDhFndBRX1B0-0" />
        <mxCell id="1LrZQP8tYeefJCKVqhzE-22" value="&lt;font style=&quot;font-size: 25px;&quot;&gt;CDP S3 SP&lt;/font&gt;" style="rounded=0;whiteSpace=wrap;html=1;hachureGap=4;fontFamily=Nunito;fontSize=20;verticalAlign=top;fillColor=#dae8fc;strokeColor=#6c8ebf;fontSource=https%3A%2F%2Ffonts.googleapis.com%2Fcss%3Ffamily%3DNunito;" parent="CrBskSO4nDhFndBRX1B0-1" vertex="1">
          <mxGeometry x="399" y="-1120" width="681" height="630" as="geometry" />
        </mxCell>
        <mxCell id="CrBskSO4nDhFndBRX1B0-4" value="1 - Validate provisioning request" style="shape=process;whiteSpace=wrap;html=1;backgroundOutline=1;hachureGap=4;fontFamily=Nunito;fontSize=20;align=left;spacingLeft=8;fontSource=https%3A%2F%2Ffonts.googleapis.com%2Fcss%3Ffamily%3DNunito;" parent="CrBskSO4nDhFndBRX1B0-1" vertex="1">
          <mxGeometry x="429" y="-1030" width="620" height="60" as="geometry" />
        </mxCell>
        <mxCell id="JZihHBsl7QY_d6qNJ1pM-1" value="&lt;font data-font-src=&quot;https://fonts.googleapis.com/css?family=Nunito&quot; face=&quot;Nunito&quot;&gt;Idempotent, ie does not fail if something it provisions already exists.&lt;/font&gt;" style="shape=callout;whiteSpace=wrap;html=1;perimeter=calloutPerimeter;hachureGap=4;fontFamily=Architects Daughter;fontSource=https%3A%2F%2Ffonts.googleapis.com%2Fcss%3Ffamily%3DArchitects%2BDaughter;fontSize=20;position2=0;size=40;position=0.13;" parent="CrBskSO4nDhFndBRX1B0-1" vertex="1">
          <mxGeometry x="1079" y="-1250" width="241" height="150" as="geometry" />
        </mxCell>
        <mxCell id="1LrZQP8tYeefJCKVqhzE-0" style="edgeStyle=orthogonalEdgeStyle;shape=connector;curved=1;rounded=0;hachureGap=4;orthogonalLoop=1;jettySize=auto;html=1;entryX=0;entryY=0.5;entryDx=0;entryDy=0;labelBackgroundColor=default;strokeColor=default;fontFamily=Nunito;fontSize=16;fontColor=default;endArrow=classic;fontSource=https%3A%2F%2Ffonts.googleapis.com%2Fcss%3Ffamily%3DNunito;" parent="CrBskSO4nDhFndBRX1B0-1" source="1LrZQP8tYeefJCKVqhzE-4" target="1LrZQP8tYeefJCKVqhzE-7" edge="1">
          <mxGeometry relative="1" as="geometry" />
        </mxCell>
        <mxCell id="1LrZQP8tYeefJCKVqhzE-1" value="Deploy,&lt;br&gt;update DP" style="edgeLabel;html=1;align=center;verticalAlign=middle;resizable=0;points=[];fontSize=16;fontFamily=Nunito;fontColor=default;fontSource=https%3A%2F%2Ffonts.googleapis.com%2Fcss%3Ffamily%3DNunito;" parent="1LrZQP8tYeefJCKVqhzE-0" vertex="1" connectable="0">
          <mxGeometry x="-0.0027" y="-2" relative="1" as="geometry">
            <mxPoint x="4" y="-25" as="offset" />
          </mxGeometry>
        </mxCell>
        <mxCell id="1LrZQP8tYeefJCKVqhzE-4" value="DP team" style="shape=umlActor;verticalLabelPosition=bottom;verticalAlign=top;html=1;outlineConnect=0;hachureGap=4;fontFamily=Nunito;fontSize=16;fontColor=default;fontSource=https%3A%2F%2Ffonts.googleapis.com%2Fcss%3Ffamily%3DNunito;" parent="CrBskSO4nDhFndBRX1B0-1" vertex="1">
          <mxGeometry x="369" y="-1398" width="60" height="117.5" as="geometry" />
        </mxCell>
        <mxCell id="1LrZQP8tYeefJCKVqhzE-5" value="" style="edgeStyle=orthogonalEdgeStyle;shape=connector;curved=1;rounded=0;hachureGap=4;orthogonalLoop=1;jettySize=auto;html=1;labelBackgroundColor=default;strokeColor=default;fontFamily=Nunito;fontSize=16;fontColor=default;endArrow=classic;fontSource=https%3A%2F%2Ffonts.googleapis.com%2Fcss%3Ffamily%3DNunito;" parent="CrBskSO4nDhFndBRX1B0-1" source="1LrZQP8tYeefJCKVqhzE-7" target="1LrZQP8tYeefJCKVqhzE-9" edge="1">
          <mxGeometry relative="1" as="geometry" />
        </mxCell>
        <mxCell id="1LrZQP8tYeefJCKVqhzE-6" value="Deploy,&lt;br&gt;update DP" style="edgeLabel;html=1;align=center;verticalAlign=middle;resizable=0;points=[];fontSize=16;fontFamily=Nunito;fontColor=default;fontSource=https%3A%2F%2Ffonts.googleapis.com%2Fcss%3Ffamily%3DNunito;" parent="1LrZQP8tYeefJCKVqhzE-5" vertex="1" connectable="0">
          <mxGeometry x="0.3239" relative="1" as="geometry">
            <mxPoint x="-26" y="-24" as="offset" />
          </mxGeometry>
        </mxCell>
        <mxCell id="1LrZQP8tYeefJCKVqhzE-7" value="&lt;font style=&quot;font-size: 36px;&quot;&gt;Witboost&lt;/font&gt;" style="rounded=0;whiteSpace=wrap;html=1;hachureGap=4;fontFamily=Nunito;fontSize=20;verticalAlign=middle;fillColor=#fff2cc;strokeColor=#d6b656;fontSource=https%3A%2F%2Ffonts.googleapis.com%2Fcss%3Ffamily%3DNunito;glass=0;" parent="CrBskSO4nDhFndBRX1B0-1" vertex="1">
          <mxGeometry x="559" y="-1400" width="200" height="120" as="geometry" />
        </mxCell>
        <mxCell id="1LrZQP8tYeefJCKVqhzE-8" style="edgeStyle=orthogonalEdgeStyle;shape=connector;curved=1;rounded=0;hachureGap=4;orthogonalLoop=1;jettySize=auto;html=1;labelBackgroundColor=default;strokeColor=default;fontFamily=Nunito;fontSize=16;fontColor=default;endArrow=classic;fontSource=https%3A%2F%2Ffonts.googleapis.com%2Fcss%3Ffamily%3DNunito;entryX=0.5;entryY=0;entryDx=0;entryDy=0;" parent="CrBskSO4nDhFndBRX1B0-1" source="1LrZQP8tYeefJCKVqhzE-9" target="1LrZQP8tYeefJCKVqhzE-22" edge="1">
          <mxGeometry relative="1" as="geometry">
            <mxPoint x="-881.8900000000001" y="-593.25" as="targetPoint" />
          </mxGeometry>
        </mxCell>
        <mxCell id="1LrZQP8tYeefJCKVqhzE-9" value="Provisioning Coordinator" style="whiteSpace=wrap;html=1;fontSize=20;fontFamily=Nunito;fillColor=#fff2cc;strokeColor=#d6b656;rounded=0;hachureGap=4;fontSource=https%3A%2F%2Ffonts.googleapis.com%2Fcss%3Ffamily%3DNunito;glass=0;" parent="CrBskSO4nDhFndBRX1B0-1" vertex="1">
          <mxGeometry x="879" y="-1398.75" width="200" height="118.75" as="geometry" />
        </mxCell>
        <mxCell id="1LrZQP8tYeefJCKVqhzE-10" value="&lt;span style=&quot;color: rgb(0, 0, 0); font-style: normal; font-variant-ligatures: normal; font-variant-caps: normal; font-weight: 400; letter-spacing: normal; orphans: 2; text-align: center; text-indent: 0px; text-transform: none; widows: 2; word-spacing: 0px; -webkit-text-stroke-width: 0px; background-color: rgb(255, 255, 255); text-decoration-thickness: initial; text-decoration-style: initial; text-decoration-color: initial; float: none; display: inline !important;&quot;&gt;&lt;font style=&quot;font-size: 16px;&quot;&gt;Provisioning request&lt;/font&gt;&lt;/span&gt;" style="text;whiteSpace=wrap;html=1;fontSize=16;fontFamily=Nunito;fontColor=default;fontSource=https%3A%2F%2Ffonts.googleapis.com%2Fcss%3Ffamily%3DNunito;" parent="CrBskSO4nDhFndBRX1B0-1" vertex="1">
          <mxGeometry x="879" y="-1227" width="180" height="70" as="geometry" />
        </mxCell>
        <mxCell id="1LrZQP8tYeefJCKVqhzE-11" style="edgeStyle=orthogonalEdgeStyle;rounded=0;orthogonalLoop=1;jettySize=auto;html=1;curved=1;entryX=-0.001;entryY=0.529;entryDx=0;entryDy=0;entryPerimeter=0;exitX=1;exitY=0.5;exitDx=0;exitDy=0;" parent="CrBskSO4nDhFndBRX1B0-1" source="RHufipWkyzRZhh8fAMYA-1" target="sNYwx5eS7knzUlJCa3ny-3" edge="1">
          <mxGeometry relative="1" as="geometry">
            <mxPoint x="1468.4783199999997" y="-840.3219999999999" as="targetPoint" />
          </mxGeometry>
        </mxCell>
        <mxCell id="1LrZQP8tYeefJCKVqhzE-12" value="Create folder structure" style="edgeLabel;html=1;align=center;verticalAlign=middle;resizable=0;points=[];fontFamily=Nunito;fontSource=https%3A%2F%2Ffonts.googleapis.com%2Fcss%3Ffamily%3DNunito;fontSize=16;" parent="1LrZQP8tYeefJCKVqhzE-11" vertex="1" connectable="0">
          <mxGeometry x="0.0402" y="7" relative="1" as="geometry">
            <mxPoint y="3" as="offset" />
          </mxGeometry>
        </mxCell>
        <mxCell id="RHufipWkyzRZhh8fAMYA-0" value="2 - Extract metadata (domain name, DP name, DP version, environment, etc)" style="shape=process;whiteSpace=wrap;html=1;backgroundOutline=1;hachureGap=4;fontFamily=Nunito;fontSize=20;align=left;spacingLeft=8;fontSource=https%3A%2F%2Ffonts.googleapis.com%2Fcss%3Ffamily%3DNunito;" parent="CrBskSO4nDhFndBRX1B0-1" vertex="1">
          <mxGeometry x="429" y="-946" width="620" height="60" as="geometry" />
        </mxCell>
        <mxCell id="RHufipWkyzRZhh8fAMYA-1" value="5 - Create folder (path is built using metadata above) in a bucket" style="shape=process;whiteSpace=wrap;html=1;backgroundOutline=1;hachureGap=4;fontFamily=Nunito;fontSize=20;align=left;spacingLeft=8;fontSource=https%3A%2F%2Ffonts.googleapis.com%2Fcss%3Ffamily%3DNunito;" parent="CrBskSO4nDhFndBRX1B0-1" vertex="1">
          <mxGeometry x="429.5" y="-694" width="620" height="60" as="geometry" />
        </mxCell>
        <mxCell id="RHufipWkyzRZhh8fAMYA-2" value="6 - Report outcome" style="shape=process;whiteSpace=wrap;html=1;backgroundOutline=1;hachureGap=4;fontFamily=Nunito;fontSize=20;align=left;spacingLeft=8;fontSource=https%3A%2F%2Ffonts.googleapis.com%2Fcss%3Ffamily%3DNunito;" parent="CrBskSO4nDhFndBRX1B0-1" vertex="1">
          <mxGeometry x="429.5" y="-610" width="620" height="60" as="geometry" />
        </mxCell>
        <mxCell id="FvK3etwAvJokyo_bT2Fi-0" value="Bucket name is the base location of the provisioned Datalake.&lt;br&gt;&lt;br&gt;The folder path is composed as follows:&lt;br&gt;mesh/domains/&lt;i&gt;&amp;lt;domain name&amp;gt;&lt;/i&gt;/data-products/&lt;i&gt;&amp;lt;data product name&amp;gt;&lt;/i&gt;/&lt;i&gt;&amp;lt;data product environment&amp;gt;&lt;/i&gt;&lt;span style=&quot;background-color: initial;&quot;&gt;/&lt;i&gt;&amp;lt;data product major version&amp;gt;&lt;/i&gt;/&lt;/span&gt;" style="shape=note;whiteSpace=wrap;html=1;backgroundOutline=1;darkOpacity=0.05;hachureGap=4;fontFamily=Nunito;fontSize=20;align=left;verticalAlign=top;spacingLeft=4;fontSource=https%3A%2F%2Ffonts.googleapis.com%2Fcss%3Ffamily%3DNunito;" parent="CrBskSO4nDhFndBRX1B0-1" vertex="1">
          <mxGeometry x="493" y="-440" width="1350" height="120" as="geometry" />
        </mxCell>
        <mxCell id="sNYwx5eS7knzUlJCa3ny-0" value="CDP" style="points=[[0,0],[0.25,0],[0.5,0],[0.75,0],[1,0],[1,0.25],[1,0.5],[1,0.75],[1,1],[0.75,1],[0.5,1],[0.25,1],[0,1],[0,0.75],[0,0.5],[0,0.25]];outlineConnect=0;gradientColor=none;html=1;whiteSpace=wrap;fontSize=12;fontStyle=0;container=1;pointerEvents=0;collapsible=0;recursiveResize=0;shape=mxgraph.aws4.group;grIcon=mxgraph.aws4.group_aws_cloud;strokeColor=#232F3E;fillColor=none;verticalAlign=top;align=left;spacingLeft=30;fontColor=#232F3E;dashed=0;movable=1;resizable=1;rotatable=1;deletable=1;editable=1;locked=0;connectable=1;" parent="CrBskSO4nDhFndBRX1B0-1" vertex="1">
          <mxGeometry x="1460" y="-1070" width="400" height="370" as="geometry" />
        </mxCell>
        <mxCell id="PwJ3uAUTG8c82joHV-oM-2" value="" style="group" parent="sNYwx5eS7knzUlJCa3ny-0" vertex="1" connectable="0">
          <mxGeometry x="107.5" y="30" width="185" height="110" as="geometry" />
        </mxCell>
        <mxCell id="PwJ3uAUTG8c82joHV-oM-3" value="&lt;span&gt;Ranger&lt;/span&gt;" style="verticalLabelPosition=middle;verticalAlign=middle;html=1;shape=mxgraph.basic.rect;fillColor2=none;strokeWidth=1;size=20;indent=5;strokeColor=#CC0000;labelPosition=center;align=center;fontStyle=0" parent="PwJ3uAUTG8c82joHV-oM-2" vertex="1">
          <mxGeometry width="185" height="110" as="geometry" />
        </mxCell>
        <mxCell id="PwJ3uAUTG8c82joHV-oM-9" value="" style="shape=image;verticalLabelPosition=bottom;labelBackgroundColor=default;verticalAlign=top;aspect=fixed;imageAspect=0;image=data:image/jpeg,/9j/4AAQSkZJRgABAQAAAQABAAD/2wCEAAkGBxISEhISEhIWEhUXGBcaGBgXFRoYFxgYGx8bFxgiFx0dHSghHR4lHRoXITIiJisuLi4vFx82ODYtNygtLisBCgoKDg0OGxAQGi0lIB0rLS0tKy0tLSsuKystLS0tLSsrLS0tLS0tLSstLS0tLS0rLS0tLS0tLS0tLS0tNy0tN//AABEIAIgAiAMBIgACEQEDEQH/xAAcAAACAgMBAQAAAAAAAAAAAAAABwUGAQIECAP/xABLEAABAgMEBwQFCgEICwAAAAABAgMABBEFEiExBgcTQVFhcSKBkaEUMnKSsSMzQlJTYoKiwfAkF0NkstHT4eMWJURUY6Oks8LS8f/EABgBAAMBAQAAAAAAAAAAAAAAAAADBAIB/8QALBEAAgIBBAAEBAcBAAAAAAAAAAECEQMhMUFREjJhcRMjgcFCUpGhseHwBP/aAAwDAQACEQMRAD8AeMEEEABBGIruk2mEtJAhar7lMG04q4i9uSOZ84Em3SON0rZYFGKnb+n0nLVSFbdwfRbII71VoO6vSKFOW5aNrKUhobNkesEm62kcXV78N3lHCW7PlMFEz7w3IN2XSeas3KGmWBrjDo4lyIllfBLzOntpTaiiVbuDg2i+un3lUIHgI45qxbTXjNTAaB+3mgnwSFGkRM9pfNOC4lYl2tzbADaRy7OJHUxBqUTicT4/rDlFrakKc099Szp0YXXs2hJFXATJrXkaR3NSdtS4vtrdcQN7boeT7tVfARSax9pWbcbN5tamzxQopPiMY603vTOKSRf7L1nTDRuTbN+hxIGzcHUEXT+XrDAsHSeVm/mXRe3oV2V+BzHMVEJ5rS9awETjTc4gYVWLro9lxONY+qLDl5nt2e+UuDEMPEIcr/wljsqPgRxhcsa9vbYZHJLjVD3TGYT1iawJqTXsJ5CnAMDeBDyR3+v358TDPsa2mJpF9hwODeAReT7QzEIlBxHxmmSYgjAjMZNhBBBABiIu27fl5RN591KN4TWq1eykYmF/rP0qmW5kSss4WwEJvXKX1KVkK/RwpvHrRW5ux5ZlZNoTi3XvptNJKnKnGi3FYVyr3wyOPliZZa2Ji29YM1Nr2Ei2pAVgCkXnVceSBljTvEQ6rIlpSq7Qc272fozS6m9n8s59HjTPfjSkc05pYoILUm2mTaOBuEl1XtuZ+HGK4Tjj3/vl+sUKNLTYQ5W9dyatnSV6YAbF1lkeqy2LqB1p6x9rfELWGTpRoi09LJmpRAbUGkOFCRRLjZAJKRuUneN/UiFzLsKcUENpK1HIJF4k9BjHYSi1oZnGSeppWCsXqytV824Ap1aJcHcarX4AgAd4ibGqJF0gzar3HZpp4Xv1g+LDs18KfQqqwViT0ksJ2TeUy6OaVAdlac6iIusbTvUW1WhmsZCqYjDpgfGNawVgAs0ppSFoDM816U0MAvAPtj7ixiRyPwj7psV1v+Ksx9T6U4kI7L7Y4LQMx0qMMqRUqx9pOccaWHGlqbWMlJJBH+EYcev07NKXYz9G9aIwbnU3TltUDDh20jI9K9BDHkp1t5IW0tLiTkUqqIRn+kMtNCk+x2/94Yolz8afVX1MZFnqYbcmrOni4hF3aBN5p1IJ7N5JoFprn/ZWEyxp+jHRyteo+0wRTNV+kLs5LubdQW42qhUBSqSKio41vDpSCEtU6KIu1ZT9Mm/9fMVyU5K/FIx8IpukyyZyaJz2ztfeMXTWSAi2JVfEMK60cI7sop+mCLs9OA/bunxUVfrFUH/BHPd+5E1grGtYKw0UNHVVa5U05LZuNVcaGFVIJ+UR0Jp3qB+jF10W0blpa+4yKlZrfOd1QCgE8E0IhHaLNPrmmUy5KXCoUUK9kfSJ5AVPdHoiSF0qRvF0/hIoPNKolyqmV4XaOuMxw2lajEum8+6hofeUBXoN8U20daksk3JdtyZVuoLiSeAJxr+GFKLeyGuSW7LhbNjsTSLj7YcTurmDxBGI7jCy051eNsMmYlb5uYrQTe7P1k4Vw38ieESibbt2a+ZlUSyT9JYoodb5x7kGOhOiFpPj+KtNQBwKWgQkjeDS58IZC4816CpVPgTNYKw52dU0kM3H1H2kU7uxGj+qaTNbrz6TzUggd1wV3Q1ZoCnhmJusFY6bXkiw+6yVBRbWpBIyJSaRyVhy1FNVobViyaFmonwcvQn6910j81PGKzWLLofg1aK9wlFo5VWpGfhGZ+V/Q7DzL6l41IJ+SmlcVoHgCf1gjo1JtUlX1cXiPBKP7YIly+dlmLyIiNd7BS7KPDelafdKVD+sYqmsVI9PdWMnEtuJ5hSEE+ZMMXXTKXpNtwZtujuCgUnzuwu9MO2zZsxuXLbM81MKKT/4w7E7UV7oRlWsis1grGsddl2c7MuJaZQVrVkBw5nIDmYbaq2I1vQtuq22JaVemHZhYR8l2Scz2k3gneT6poOB4RZ39K7QtAlFmy5abyLyxQ06nBJ5CpEdGi2q9lqjk2duvDsZNp6719+HKLbpDbDMhLqdWKJTRKUJoKn6ISPjwAJ3RLKcXK0tSqMJeGm9CpWXqwSpW1nphcws4kBRA6FR7R8osanLNs1NCWZbDIU2ihzAqpXnCwGmFoWlMtyyHjLJcXdo0MUjeSrBRoAcAoVicXqfKiVGeqSd7FT/AN2OtfnYJr8COu1tbbCapl2VOncpZCE9wxJ8oiZTW89fG1l2yjfcKgqnKtakY4R1fyOf07/p/wDNgOpz+m/8j/NjvyqOfNGXKzzbjSXkqFxSQsKOAukVqdw74Xem+stASpiSVeUahTo9VPG5xPPLhXdy27oHaXo6WW5sTDTYN1r5onEq4lKjjvOELGZZU2pSFpKFJNCkggg8wcoMeOLd2GTJJKqNVLJJJNScSTmTvrzjFYxWCsUkxmsWaxDcs20V5X1S7aT+IrV5ARWKxZ5v5OyZdJ/n5l1z8LaQ38axme3v9jcFbGpqmlrlnNHK+pxX5ikeSYInNE5TZSUq3ShS0ivtEVV5kwRHN3Jstgqijm05kNvIzTYFTsyocyjtgeKfOEv89ZAOapaY8G3h/wC4j0G4K1BxhGWNZ2zm7Rss1o6hxLdd62yXWT3pFe+GY3pXWonLHW+9Cj1h06nRKiVqhSfSFKO1FRfoCQgAZ3btDhvJhKGCsPnHxLcRCXh4PVinABVRA5kgQttcc0y7LNhEw2paHASgOJKiCCmt2tcKj3jCcrBWMRw07sZLP4lVEro3bSpN9MwhCVqSFABVaAEXcaHgTvj0RozPOPyrDzqQlbiAohNaAHFNKknKkeaJNkuOIbTmtSUjqSAPMx6kk2A22htOSEhI6AUHwjGerNf89kFp5pEqQltshKVLK0pSFZVOJrSm4GKFIa33b428ugo33CoEbica1pnT9j6a85/tS0uDkFOEdewn4LhfWJYMxNrCGGlKqaFVOwkbyVZDL9OEEILw2wnkl46iemJV9K0JWk1SoBQPEHEQrdd1kIAYm0gBRVs1n62BUivS6od8M6zZQMstNJxDaEoHRICR8IXOvG0EhmXl69or2hHBKUqT5lX5YXj8w3J5BQVgrGsFYtIUbVi7W1I35mzLP+o0wlY4LcO0dPumvdFd0Ts70icl2qVClgq9lPaV+UKi8aBD022JibzQguKSd2PybQP4Cr3YXN89fcZBWOJIwggEERlwGFFrXlVSs9LWg2Mym97beIvclIoKfcMN2IDTewxOyjrP06Xm+S04jxxT0UY1B07MTVoRmnMgluaUtv5mYCXmjxS52qdyiR3RX6xcJJszsiuVIrMyZUtoHNTJ+cRzKTjTfSkU4/v97+sVxfBFPszWCsawRswWvVlI7a0pcEYIJcPK4Kp/Ncj0PCf1FyFXJl8j1UpQPxG8r+qmG6+4EpUpWAAJPQA18okyu5FmFVGyuWhp7ZzLi2nJi6tCqKGzcNCN1Upp5xZGVhSUqSaggEdDlHle0ZovOuunNa1rPVRqfjHobV1aG3s6WVvSjZnkUdgeQB74J41FJncWRybRH6a6ftyCyxsVuOlIUK0DdDhUmtTjup4Qkratd2beU+8arV7oGQAG7Cn+OcMzXnZvZlpkDIqbUeSu0jwovxhRw3DGNWJzSl4qM1grGsdFnya3nUNNi8tZCQOJPHkBj/8AIdxYhJ7Fl0aHo0nOTpwUsejs81LxdI4FKMjzIhl6n7H2EltVCi31XudwdlHd6yvxxRJ6TE1OSllS5qzL9lSxvX60wv4gcxzh4yrKW0IQgBKUpCUgZBIFAB3RLkZXijrfR9hBAIISUGY1MbQQAKHWTYjslNItSUw7QLgGSVnCqvuLqQeZPHCu2lo0J5Cp6z0i6QVPMV7bTmag2KdoH1h06CHzNsJcStCwFJUCFJORBwP6wptMdBlyAROWaVp2RBWkEkil7tgb0gEgjcOOMOhPh/70J8kK146+4qontCtHPT5kMXy2LqlKUBWgGAww3lPjElaVnotFC5uTQEPpF6Ylk+bjP1knhnXqIitFNKXrPW44whtalpCTtEqVQVrhdWnM092H3a9SeknrsPjQvRlFnsKZSsuXllZUU3akhIyqdyREna8kX2HWb1zaIUi9StAoUOGG6sJv+WGf+ylvcc/vYwdcE/8AZS3uOf3kT/DndlPxYVRWdMrDRIzKpZDm1upQSSm7RRF4bzuIhjajLQqzMsE4pWlY6LF006FI96FRbNprmXnJhyl9w3jQEDlSpJpSm+O3RXSZ6QdU6yEKKklBCwoppUGuBGOHhWHyi3AnjNRnZ6D0qsJE9LLl1qKLxSQoCpSQQcsOFO+EFpnYaJGaVLocLt1KSSU3aKVjTM7iIsg1wT/2Ut7jnn8pFRnJh+0JpSwi+88r1UA03UABJIAAzrhGMcZR32GZZxltuclnSLj7iGWkla1miU/HkAM6xcXGBY7awVBVoOgpTdNRLtHC9X7RW47gRlXtfJ1wSCDJyh20872HnUVOzr/NtEZq3FXHLH1b/obq6aZDL81V2ZSQrE1SggAJFMlXePGNTnz+3f8ARmELPrqt0TMoyXnk0feAqCMUN5hJ5nM9Bwi9pgEZiWTt2VxSSoyIIBBHDQQQQQAEaLH7/e6N4IAFLptoO9Lu+n2bVKkm8ptAxBzJbG8HejrnXCrLYl7V7TdyWnt6Dg1MHeUHJLh+qcK06x6AUYoOm+rdqbvPS9GH8zhRCzzp6qvvCGwycMRPHyhHzsm4ytTbqC2tJoUqFCP3nHwrF3mrVcbIlLZllPJSKJcwD6BxbcyWnkTTiTHFMaHl1Jds95M62MSgdl9A++2TUjpFCl3oTOPRVawVjslbKfdc2LbLi3BmgIN4c1DdTnxixJ0flZPtWg9tHB/srCry68HXMkdBj8I74kt9Tii3toQ9gaPvziiGk3UpxcdUbrbad5Wo/AY790WBNooY/g7KSp15zsrmaEOK4pYH0EcVd+6o+sozP2vRmXbTLSaT6qQUMp5qObi/14Q19EdDpez0/Ji+4fWcUBePT6o5Qqc0t9+hsMd7ETq90DTIpDz1FzKhmMmxvSjieKu7AVrekxkRmJm23bKoxUVSCCCCA0EEEEABBBBAAQQQQAEEEEAEfbFkMTSC2+0l1PMYjocx1EK63NVDzStrZ7xqDUIUopcHsLBHnTrBBGoTa2MTgpK2RiW9IZisqrboAwUpQDYIP1nKC+KVwBOe+LLozqmZbIcnF7dX2aahsdd6+mA5RmCNSyNKkYhjT1YyZZlKEhCEhKRgAkUAHICPrBBCxwQQQQAEEEEABBBBAB//2Q==;" parent="PwJ3uAUTG8c82joHV-oM-2" vertex="1">
          <mxGeometry x="3" y="3" width="20" height="20" as="geometry" />
        </mxCell>
        <mxCell id="sNYwx5eS7knzUlJCa3ny-5" value="" style="group" parent="sNYwx5eS7knzUlJCa3ny-0" vertex="1" connectable="0">
          <mxGeometry x="30" y="170" width="350" height="170" as="geometry" />
        </mxCell>
        <mxCell id="sNYwx5eS7knzUlJCa3ny-3" value="" style="verticalLabelPosition=bottom;verticalAlign=top;html=1;shape=mxgraph.basic.rect;fillColor2=none;strokeWidth=1;size=20;indent=5;strokeColor=#7aa116;" parent="sNYwx5eS7knzUlJCa3ny-5" vertex="1">
          <mxGeometry width="350" height="170" as="geometry" />
        </mxCell>
        <mxCell id="sNYwx5eS7knzUlJCa3ny-4" value="" style="sketch=0;outlineConnect=0;fontColor=#232F3E;gradientColor=none;fillColor=#7AA116;strokeColor=none;dashed=0;verticalLabelPosition=bottom;verticalAlign=top;align=center;html=1;fontSize=12;fontStyle=0;aspect=fixed;pointerEvents=1;shape=mxgraph.aws4.bucket;" parent="sNYwx5eS7knzUlJCa3ny-5" vertex="1">
          <mxGeometry x="2.9166666666666665" y="2" width="19.23" height="20" as="geometry" />
        </mxCell>
        <mxCell id="sNYwx5eS7knzUlJCa3ny-8" value="" style="group" parent="sNYwx5eS7knzUlJCa3ny-5" vertex="1" connectable="0">
          <mxGeometry x="14.583333333333332" y="52" width="320.8333333333333" height="100" as="geometry" />
        </mxCell>
        <mxCell id="sNYwx5eS7knzUlJCa3ny-7" value="" style="rounded=0;whiteSpace=wrap;html=1;strokeColor=#0080f0;" parent="sNYwx5eS7knzUlJCa3ny-8" vertex="1">
          <mxGeometry width="320.8333333333333" height="100" as="geometry" />
        </mxCell>
        <mxCell id="sNYwx5eS7knzUlJCa3ny-6" value="&lt;font style=&quot;font-size: 12px;&quot;&gt;mesh/domains/ &lt;i&gt;&amp;lt;domain name&amp;gt;&lt;/i&gt; /data-products/ &lt;i&gt;&amp;lt;data product name&amp;gt;&lt;/i&gt; / &lt;i&gt;&amp;lt;data product environment&amp;gt;&lt;/i&gt;&amp;nbsp;&lt;/font&gt;/ &lt;i&gt;&amp;lt;data product major version&amp;gt;&lt;/i&gt; /" style="text;html=1;strokeColor=none;fillColor=none;align=center;verticalAlign=middle;whiteSpace=wrap;rounded=0;" parent="sNYwx5eS7knzUlJCa3ny-8" vertex="1">
          <mxGeometry x="14.583333333333332" y="46" width="291.66666666666663" height="30" as="geometry" />
        </mxCell>
        <mxCell id="sNYwx5eS7knzUlJCa3ny-9" value="" style="html=1;verticalLabelPosition=bottom;align=center;labelBackgroundColor=#ffffff;verticalAlign=top;strokeWidth=2;strokeColor=#0080F0;shadow=0;dashed=0;shape=mxgraph.ios7.icons.folder;" parent="sNYwx5eS7knzUlJCa3ny-8" vertex="1">
          <mxGeometry x="4.38" y="3" width="25.63" height="19.5" as="geometry" />
        </mxCell>
        <mxCell id="oBTKTaWE-g5Lr3cDTh3D-0" value="" style="shape=image;verticalLabelPosition=bottom;labelBackgroundColor=default;verticalAlign=top;aspect=fixed;imageAspect=0;image=data:image/jpeg,/9j/2wCEAAgGBgcGBQgHBwcJCQgKDBQNDAsLDBkSEw8UHRofHh0aHBwgJC4nICIsIxwcKDcpLDAxNDQ0Hyc5PTgyPC4zNDIBCQkJDAsMGA0NGDIhHCEyMjIyMjIyMjIyMjIyMjIyMjIyMjIyMjIyMjIyMjIyMjIyMjIyMjIyMjIyMjIyMjIyMv/AABEIARgBGAMBIgACEQEDEQH/xAGiAAABBQEBAQEBAQAAAAAAAAAAAQIDBAUGBwgJCgsQAAIBAwMCBAMFBQQEAAABfQECAwAEEQUSITFBBhNRYQcicRQygZGhCCNCscEVUtHwJDNicoIJChYXGBkaJSYnKCkqNDU2Nzg5OkNERUZHSElKU1RVVldYWVpjZGVmZ2hpanN0dXZ3eHl6g4SFhoeIiYqSk5SVlpeYmZqio6Slpqeoqaqys7S1tre4ubrCw8TFxsfIycrS09TV1tfY2drh4uPk5ebn6Onq8fLz9PX29/j5+gEAAwEBAQEBAQEBAQAAAAAAAAECAwQFBgcICQoLEQACAQIEBAMEBwUEBAABAncAAQIDEQQFITEGEkFRB2FxEyIygQgUQpGhscEJIzNS8BVictEKFiQ04SXxFxgZGiYnKCkqNTY3ODk6Q0RFRkdISUpTVFVWV1hZWmNkZWZnaGlqc3R1dnd4eXqCg4SFhoeIiYqSk5SVlpeYmZqio6Slpqeoqaqys7S1tre4ubrCw8TFxsfIycrS09TV1tfY2dri4+Tl5ufo6ery8/T19vf4+fr/2gAMAwEAAhEDEQA/AH0UUV8kfeBRRRQAUUUUAFFFFABRRRQAUUUUAFFFFABRRRQAUUUUAFFFFABRRRQAUUUUAFFFFABRRRQAUUUUAFFFFABRRRQAUUUUAFFFFABRRRQAUUUUAFFFFABRRRQAUUUUAFFFFABRRRQAUUUUAFFFFABRRRQAUUUUAFFFFABRRRQAUUUUAFFFFABRRRQAUUUUAFFFFABRRRQAUUUUAFFFFABRRRQAUUUUAFFFFABRRRQAUUUUAFFFFABRRRQAUUUUAFFFFABRRRQAUUUUAFFFFABRRRQAUUUUAFFFFABRRRQAUUUUAFFFFABRRRQAUUUUAFFFFABRRRQAUUUUAFFFFABRRRQAUUUUAFFFFABRRRQAUUUUAFFFFABRRRQAUUUUAFFFFABRRRQAUUUUAFFFFABRRRQAUUUUAFFFFABRRRQAUUUUAFFFFABRRRQAUUUUAFFFFABRRRQAUUUUAFFFFABRRRQAUUUUAFFFFABRRRQAUUUUAFFFFABRRRQAUUUUAFFFFABRRRQAUUUUAFFFFABRRRQAUUUUAFFFFABRRRQAUUUUAFFFFABRRRQAUUUUAFFFFABRRRQAUUUUAFFFFABRRRQAUUUUAFFFFABRRRQAUUUUAFFFFABRRRQAUUUUAFFFFABRRRQAUUUUAFFFFABRRRQAUUUUAFFFHWgAorstE8BT3kSXGoytbxOMiJB+8/HPT9fwroj4C0Ty9vlzZ/veac/4V2QwNaava3qedVzTD05ct7+h5XRXW+I/Bh0i2e9tbkPbLjKykBx9D0NYvh/TotW1y2sZ2dY5d2ShAPCk9wfSsJ0JwmqclqzphiqU6TqxeiMyius8WeF7LQbO3mtpbh2kk2ESspGMZ7AVydKrSlSlyy3LoV4V4c8NgoorrfD/AIJm1OJLu9doLZxlVX77j156CilSnVlywQq+Ip0I81R2OSor1mPwNoKJta1dz/eaZs/oRWVqvw8geMyaZO0cg/5ZynKn6HqP1rqll1ZK61OGGb4eUrO6PO6KkuLeW1uHgnjaOWM7WVuoNdR4P8OWOuQXT3ZlzEyhdjY6g+1ctOlKpPkW53Vq8KNP2ktjk6K3vFuj22iatHbWpfy2gEh3tk5LMP6ViQoJJ40PRmAP50pwcJuD3Kp1Y1KaqR2YyivR9U8D6TZ6TeXMRuPMigeRcyDGQpI7V5xV1sPOi0pdTLDYuniE3DoFFemD4daSR/x83v8A32n/AMTSN8OdL2nbdXgbHBLKR/6DXR/Z1fscv9rYbz+480orqtY8C3+nRNPbSC7iXkhRhwPp3/D8q5ZSMgsCV7gHBrlqUp0naasd1HEU60eam7iUV6BpXg3QtW0+O7t7q92uOQXTKnuD8tXf+FdaT/z83v8A32n/AMTXTHAVpK6t95xyzXDxdne/oeZUV6b/AMK60n/n5vf++1/+Jrzi7iW3vZ4VJKxyMgJ64BxWNbDVKKTn1N8PjKWIbVPoQ0V3+keBdN1DSLW7luLtXmjDsFZcAn0+Wr3/AArrSf8An5vf++0/+JraOArSSaRhLNcPFuLvp5HmVFd7qPw62xs+nXjFh0jnA5/4EP8ACuFlikgmeKVCkiMVZT1BHWsKtCpS+NHTh8VSxC/dsZRRXoOleALO40u3nvZrpLiRN7KjKAM8gcqe2KKNCdZ2gGIxVPDpOo9zz6irmqWD6ZqdxZvn905AJ7r2P5YqnWUouLszeMlKKktmFFFFIYV0vgjS01DXRLKMx2q+Zj1bPH+P4VzVdp8OZ0TU7yEn5niBX8Dz/OujCRUq0Uzkx8pRw03HsbvjTxDPo9tFbWhC3E+Tv7oo9Pc/0Nec/wBqah53nfbrnzc53+ac5/Out+JFvILuyucfuyhjz6EHP9f0rh61x1SftnFvRHPllGn9XUravc0NR1vUdVjiS9uWlSIfKMADPqcdT71e8F/8jbY/8D/9AasGt7wX/wAjbY/8D/8AQGrGjJyrRcnfVHTiIRhhpxirKzOp+JH/ACC7P/ruf/QTXnFej/Ej/kF2f/Xc/wDoJrzitsw/js58p/3ZerNbwzp6an4gtbaZd0JJZx6gAnH8h+NeoeINVGh6NJdBQzjCRqehY9Pw7/hXnvgWZYvFEKt/y0jdB9cZ/pXX+PrWS58OBo1LeRMsjADPGCP6104R8mFlOG5xY9KpjYU5/DoefT+INXuJvNfUrkNnI2SFQPoBwK7XwT4luNRkk0++k8yVV3xyHqwHUH1rziup8BWjz+IhcDIS3jZmPYkjaB+pP4Vy4SrU9stb3O7H4ej9Xk7JWWhqfEbT0AtdRRQGLGKQj+LjI/kam+G3/HrqH++n8jU/xGkUaPaxfxNcbh9ApB/mKrfDZx5Oop/EGjP/AKF/hXbZRxyt/Wh515Syx36P9TM+Iv8AyMMH/Xqv/oTVy1t/x9Q/76/zrq/iLGw1y3kI+VrcKD7hmz/MVy1mjSX1vGgLO0qqAO5JrgxSf1iXqepgWvqkfQ9l13/kXtS/69ZP/QTXide1a+4Xw7qJJxm2kH/jprxWurM/jicWS/w5+p7J4ollg8NXksMjxyKg2sjEEcjuK8rTXdXjcMup3mR6zMR+RNeo+Lf+RVvv9wf+hCvHqWZSlGorPoPKKcJUpcyT1/Q9S8H+I5dbglt7vBuoQCXAwHU98diP6iuR8b6Ymn68zxLtjuV83A/vZ+b/AB/GtL4c2kpv7q8wwiWPys9ixIP6AfrSfEe6WTULO2H3oo2c/wDAiB/7LVVG6mDUp7kUYqlmLhS2e/3HN6WdYkLwaXJef33S3dh7ZIB+laX2bxh/1Fv+/j/41X8L61BoWpSXU8UkgaIxhUx3IPf6V1v/AAsew/58bn81/wAawoRpOF51GmdWJlXjUap0lJdzk7t/E9jD511PqcMecbnlcDP51iMzOxZmLMxySTkk113ibxfa65pQtIbaaNvMD7nIxxn0+tchWGI5VK0JXR04TncOapBRfkew6IceDrUjr9l/pXkv267/AOfqb/v4a9e8OhT4VsQ+Nn2cbs+mKp2uheFb0sLWC0nK/e8qbdj64NepXw860IcrtoeJhsVDD1KnPFu7/wAyj4B1O+v7S7ju5XmSEqI3fk85yM9+g/OuZ8dxRx+J5CigF4kZsdz0/oK7m/1TSfCdksSQ+XuBMcMSffPc56fUmvLdU1GbVdRmvZ+HkPCjoo6AflWGMkoUVRbvI6cvhKpiZV4x5YsueF9L/tbXoIHBMSfvJP8AdHb8TgfjXo+ra+mm6xptiSv+kP8Avc9VU8Kf++v5Gsv4f6X9m0t79wfMuThc9kH+Jz+lVNf8I6xq+tzXqT2qoSBGGdgVAHH8P4/jWlGFSjh04K8m/wADHE1KWIxTjUlaMU18/wDh/wAhnxE03/j31KNP+mUpA/FSf1H5VwVe0XOny6l4feyvjH58sW2Rk5Xf/eHTvzXjU0TwTyQyDDxsVYehBwa5swpctTnXU7Mpr89J0nvH8hlFFFcB6wVa06/l0zUIbyH78TZx2I7j8RVWimm07oUoqScXsz2G0v8ASPFWntGQsy4HmQuMMh/z3FZP/CvNMNwX+0XIizny8jp6ZxmvNkkeJw8bsjjoynBFXxr+sCLyxql3tzn/AFzZ/POa9D67Tml7WF2eR/Z1ak37CpZM7Hxdpfh+w0dIlCW90g/cCMZd/ZvUe56fpXN+C/8AkbbH/gf/AKA1Ybu8rl5HZ2PVmOSaI5JIZBJE7I46MpwR+Nc88QpVVUUbJHXTwkoYeVJyu3fV+Z7NrehWuvW8UN1JMixtvBiIBzjHcGsT/hXWkf8APze/99p/8TXnn9pX/wDz+3P/AH9b/Gj+0r//AJ/bn/v63+NdM8ZRm+aVO7OOnl2Jpx5YVbI1/EWmx+GNdt10+aYlY1mVpCCQ25h2A44rv9D1+y8QWO3KLPtxNbt+vHcV5HLPLO4eaV5GAxl2JOPxpqO0bh0Yq46MpwRWNLF+yqNxXuvodFfAe3pRU5e8up6lceAdFnnMqfaIQTkpG42/qDWtFDpnh3TW2eXbWycszHqfc9Sa8qXxLrSKFGp3GB6vk/mao3V9dX0m+6uJZm9XYmuj67Rh71OGpyf2biKlo1al4mp4o1467qQdAVtogVhU9fcn3P8AQUnhfWV0TWUnlJ+zyL5cuOcD1x7H+tYtFcHtp+09r1PV+rU/Y+xtoe0XlhpniOxTzds8LDdHJG3I9wap6T4P0vR7r7TEJZZR91pmB2fTAFeW2mpX1gc2l3ND6hHIB+o6VYn8QavcxGOXUbhkPUb8Z/Ku/wCvUZNTlD3jyf7MxEU6cKnuv1Ov8c+IofszaTaSBpGI89l6KBztz65xXn1FFcNevKtPnZ6uFw0cPT5InuOoWMWqadLZzM6xygBihAI5zxmuei+H2jRSBnku5VHVHkGD+QB/WvOf7Svv+f25/wC/rf40jaheuu1ru4YHsZCf612zxtGbvKF2ebTyzEU1ywq2R6pfa1o3huz8iNowUGFt4cbs+47fU15ZqWoTapqE15OfnkbOOyjsB9BVXrSgkEEEgjoRXNiMVKtZWskduEwMMPeV7yfU7nQvAcN5psdxqT3MM0nzCOMgbV7ZyDzWn/wrrSf+fm9/77T/AOJrzz+0r7/n9uf+/rf40f2lf/8AP7c/9/W/xrSOIw8Uk6dzCeFxcpNqrY9D/wCFdaR/z83v/faf/E15xdxLb3s8KElY5GQE9cA4qT+0r7/n9uf+/rf41WJLMWYkknJJ71jXq0ppckbHRhaFam26s+Y9g0T/AJE61/69f6V5XpWqXOkXyXVsxBB+ZM8OPQ1Et9dpGI1up1QDAUSEDH0qvV1sV7Tl5dHEjDYL2XtOd3Uj12WLT/GPh8MrAbh8r4y0TjqP89RXmn9h3ia4mkyRlZ2cLxyMf3vpjmqUN1cW4IhnljB5IRyM/lSm7uTKJTcSmRRgOXOQPrRWxEK1nKOq38xYbCVMPzRhL3Xt5HrHiDUh4c8P5tVQOu2GBSOB/wDqANcP/wAJ3rn/AD0h/wC/Qrn5rq4uFCzXEsgByA7k4/OoadbGznK8HZCw2W06cbVEpPuej+EfFV1quoS2l+8ZZk3RbVxyOo/Ln8Kw/Hml/Y9YW8jXEV0MnA6OOv58H865aOR4nDxuyOOjKcEVJNd3NwoWa4lkUHIDuSM/jSnivaUfZz1fccMD7LEe1puy7ENFFFch6AUUUUAFFFFABRRRQAUUUUAFFFFABRRRQAUUUUAFFFFABRRRQAUUUUAFFFFABRRRQAUUUUAFFFFABRRRQAUUUUAFFFFABRRRQAUUUUAFFFFABRRRQAUUUUAFFFFABRRRQAUUUUAFFFFABRRRQAUUUUAFFFFABRRRQAUUUUAFFFFABRRRQAUUUUAFFFFABRRRQAUUUUAFFFFABRRRQAUUUUAFFFFABRRRQAUUUUAFFFFABRRRQAUUUUAFFFFABRRRQAUUUUAFFFFABRRRQAUUUUAFFFFABRRRQAUUUUAFFFFABRRRQAUUUUAFFFFABRRRQAUUUUAFFFFABRRRQAUUUUAFFFFABRRRQAUUUUAFFFFABRRRQAUUUUAFFFFABRRRQAUUUUAFFFFABRRRQAUUUUAFFFFABRRRQAUUUUAFFFFABRRRQAUUUUAFFFFABRRRQAUUUUAFFFFABRRRQAUUUUAFFFFABRRRQAUUUUAFFFFABRRRQAUUUUAFFFFABRRRQAUUUUAFFFFABRRRQAUUUUAFFFFABRRRQAUUUUAFFFFABRRRQAUUUUAFFFFABRRRQAUUUUAFFFFABRRRQAUUUUAFFFFABRRRQAUUUUAFFFFABRRRQAUUUUAFFFFABRRRQAUUUUAFFFFABRRRQAUUUUAFFFFABRRRQAUUUUAFFFFABRRRQAUUUUAFFFFABRRRQAUUUUAFFFFABRRRQAUUUUAFFFFABRRRQAUUUUAFFFFABRRRQAUUUUAFFFFABRRRQB//2Q==;" parent="CrBskSO4nDhFndBRX1B0-1" vertex="1">
          <mxGeometry x="359" y="-1160" width="80" height="80" as="geometry" />
        </mxCell>
        <mxCell id="PwJ3uAUTG8c82joHV-oM-0" value="3 - Map Witboost user and group OWNER of the DP to CDP identities" style="shape=process;whiteSpace=wrap;html=1;backgroundOutline=1;hachureGap=4;fontFamily=Nunito;fontSize=20;align=left;spacingLeft=8;fontSource=https%3A%2F%2Ffonts.googleapis.com%2Fcss%3Ffamily%3DNunito;" parent="CrBskSO4nDhFndBRX1B0-1" vertex="1">
          <mxGeometry x="429" y="-862" width="620" height="60" as="geometry" />
        </mxCell>
        <mxCell id="PwJ3uAUTG8c82joHV-oM-1" value="4 - Create/Update security zone, roles and policies" style="shape=process;whiteSpace=wrap;html=1;backgroundOutline=1;hachureGap=4;fontFamily=Nunito;fontSize=20;align=left;spacingLeft=8;fontSource=https%3A%2F%2Ffonts.googleapis.com%2Fcss%3Ffamily%3DNunito;" parent="CrBskSO4nDhFndBRX1B0-1" vertex="1">
          <mxGeometry x="429" y="-778" width="620" height="60" as="geometry" />
        </mxCell>
        <mxCell id="PwJ3uAUTG8c82joHV-oM-10" style="edgeStyle=orthogonalEdgeStyle;rounded=0;orthogonalLoop=1;jettySize=auto;html=1;curved=1;entryX=0;entryY=0.43;entryDx=0;entryDy=0;entryPerimeter=0;exitX=1;exitY=0.5;exitDx=0;exitDy=0;" parent="CrBskSO4nDhFndBRX1B0-1" source="PwJ3uAUTG8c82joHV-oM-1" target="PwJ3uAUTG8c82joHV-oM-3" edge="1">
          <mxGeometry relative="1" as="geometry">
            <mxPoint x="1470" y="-989.25" as="targetPoint" />
            <mxPoint x="1030" y="-843.25" as="sourcePoint" />
          </mxGeometry>
        </mxCell>
        <mxCell id="PwJ3uAUTG8c82joHV-oM-11" value="API" style="edgeLabel;html=1;align=center;verticalAlign=middle;resizable=0;points=[];fontFamily=Nunito;fontSource=https%3A%2F%2Ffonts.googleapis.com%2Fcss%3Ffamily%3DNunito;fontSize=16;" parent="PwJ3uAUTG8c82joHV-oM-10" vertex="1" connectable="0">
          <mxGeometry x="0.0402" y="7" relative="1" as="geometry">
            <mxPoint y="3" as="offset" />
          </mxGeometry>
        </mxCell>
      </root>
    </mxGraphModel>
  </diagram>
  <diagram name="Unprovisioning" id="lyuhk4d2zdSCGKrCopyr">
    <mxGraphModel dx="1687" dy="2687" grid="1" gridSize="10" guides="1" tooltips="1" connect="1" arrows="1" fold="1" page="1" pageScale="1" pageWidth="2336" pageHeight="1654" math="0" shadow="0">
      <root>
        <mxCell id="bbW2j20G2nXK4502efK3-0" />
        <mxCell id="bbW2j20G2nXK4502efK3-1" parent="bbW2j20G2nXK4502efK3-0" />
        <mxCell id="bbW2j20G2nXK4502efK3-2" value="&lt;font style=&quot;font-size: 25px;&quot;&gt;CDP S3 SP&lt;/font&gt;" style="rounded=0;whiteSpace=wrap;html=1;hachureGap=4;fontFamily=Nunito;fontSize=20;verticalAlign=top;fillColor=#dae8fc;strokeColor=#6c8ebf;fontSource=https%3A%2F%2Ffonts.googleapis.com%2Fcss%3Ffamily%3DNunito;" parent="bbW2j20G2nXK4502efK3-1" vertex="1">
          <mxGeometry x="399" y="-1120" width="681" height="440" as="geometry" />
        </mxCell>
        <mxCell id="bbW2j20G2nXK4502efK3-3" value="1 - Validate provisioning request" style="shape=process;whiteSpace=wrap;html=1;backgroundOutline=1;hachureGap=4;fontFamily=Nunito;fontSize=20;align=left;spacingLeft=8;fontSource=https%3A%2F%2Ffonts.googleapis.com%2Fcss%3Ffamily%3DNunito;" parent="bbW2j20G2nXK4502efK3-1" vertex="1">
          <mxGeometry x="429" y="-1030" width="620" height="60" as="geometry" />
        </mxCell>
        <mxCell id="bbW2j20G2nXK4502efK3-4" value="&lt;font data-font-src=&quot;https://fonts.googleapis.com/css?family=Nunito&quot; face=&quot;Nunito&quot;&gt;Idempotent, ie does not fail if policies/roles are already deleted.&lt;/font&gt;" style="shape=callout;whiteSpace=wrap;html=1;perimeter=calloutPerimeter;hachureGap=4;fontFamily=Architects Daughter;fontSource=https%3A%2F%2Ffonts.googleapis.com%2Fcss%3Ffamily%3DArchitects%2BDaughter;fontSize=20;position2=0;size=40;position=0.13;" parent="bbW2j20G2nXK4502efK3-1" vertex="1">
          <mxGeometry x="1079" y="-1250" width="241" height="150" as="geometry" />
        </mxCell>
        <mxCell id="bbW2j20G2nXK4502efK3-5" style="edgeStyle=orthogonalEdgeStyle;shape=connector;curved=1;rounded=0;hachureGap=4;orthogonalLoop=1;jettySize=auto;html=1;entryX=0;entryY=0.5;entryDx=0;entryDy=0;labelBackgroundColor=default;strokeColor=default;fontFamily=Nunito;fontSize=16;fontColor=default;endArrow=classic;fontSource=https%3A%2F%2Ffonts.googleapis.com%2Fcss%3Ffamily%3DNunito;" parent="bbW2j20G2nXK4502efK3-1" source="bbW2j20G2nXK4502efK3-7" target="bbW2j20G2nXK4502efK3-10" edge="1">
          <mxGeometry relative="1" as="geometry" />
        </mxCell>
        <mxCell id="bbW2j20G2nXK4502efK3-6" value="Deploy,&lt;br&gt;update DP" style="edgeLabel;html=1;align=center;verticalAlign=middle;resizable=0;points=[];fontSize=16;fontFamily=Nunito;fontColor=default;fontSource=https%3A%2F%2Ffonts.googleapis.com%2Fcss%3Ffamily%3DNunito;" parent="bbW2j20G2nXK4502efK3-5" vertex="1" connectable="0">
          <mxGeometry x="-0.0027" y="-2" relative="1" as="geometry">
            <mxPoint x="3" y="-26" as="offset" />
          </mxGeometry>
        </mxCell>
        <mxCell id="bbW2j20G2nXK4502efK3-7" value="DP team" style="shape=umlActor;verticalLabelPosition=bottom;verticalAlign=top;html=1;outlineConnect=0;hachureGap=4;fontFamily=Nunito;fontSize=16;fontColor=default;fontSource=https%3A%2F%2Ffonts.googleapis.com%2Fcss%3Ffamily%3DNunito;" parent="bbW2j20G2nXK4502efK3-1" vertex="1">
          <mxGeometry x="369" y="-1399" width="60" height="117.5" as="geometry" />
        </mxCell>
        <mxCell id="bbW2j20G2nXK4502efK3-8" value="" style="edgeStyle=orthogonalEdgeStyle;shape=connector;curved=1;rounded=0;hachureGap=4;orthogonalLoop=1;jettySize=auto;html=1;labelBackgroundColor=default;strokeColor=default;fontFamily=Nunito;fontSize=16;fontColor=default;endArrow=classic;fontSource=https%3A%2F%2Ffonts.googleapis.com%2Fcss%3Ffamily%3DNunito;" parent="bbW2j20G2nXK4502efK3-1" source="bbW2j20G2nXK4502efK3-10" target="bbW2j20G2nXK4502efK3-12" edge="1">
          <mxGeometry relative="1" as="geometry" />
        </mxCell>
        <mxCell id="bbW2j20G2nXK4502efK3-9" value="Deploy,&lt;br&gt;update DP" style="edgeLabel;html=1;align=center;verticalAlign=middle;resizable=0;points=[];fontSize=16;fontFamily=Nunito;fontColor=default;fontSource=https%3A%2F%2Ffonts.googleapis.com%2Fcss%3Ffamily%3DNunito;" parent="bbW2j20G2nXK4502efK3-8" vertex="1" connectable="0">
          <mxGeometry x="0.3239" relative="1" as="geometry">
            <mxPoint x="-26" y="-24" as="offset" />
          </mxGeometry>
        </mxCell>
        <mxCell id="bbW2j20G2nXK4502efK3-10" value="&lt;font style=&quot;font-size: 36px;&quot;&gt;Witboost&lt;/font&gt;" style="rounded=0;whiteSpace=wrap;html=1;hachureGap=4;fontFamily=Nunito;fontSize=20;verticalAlign=middle;fillColor=#fff2cc;strokeColor=#d6b656;fontSource=https%3A%2F%2Ffonts.googleapis.com%2Fcss%3Ffamily%3DNunito;glass=0;" parent="bbW2j20G2nXK4502efK3-1" vertex="1">
          <mxGeometry x="559" y="-1400" width="200" height="120" as="geometry" />
        </mxCell>
        <mxCell id="bbW2j20G2nXK4502efK3-11" style="edgeStyle=orthogonalEdgeStyle;shape=connector;curved=1;rounded=0;hachureGap=4;orthogonalLoop=1;jettySize=auto;html=1;labelBackgroundColor=default;strokeColor=default;fontFamily=Nunito;fontSize=16;fontColor=default;endArrow=classic;fontSource=https%3A%2F%2Ffonts.googleapis.com%2Fcss%3Ffamily%3DNunito;entryX=0.5;entryY=0;entryDx=0;entryDy=0;" parent="bbW2j20G2nXK4502efK3-1" source="bbW2j20G2nXK4502efK3-12" target="bbW2j20G2nXK4502efK3-2" edge="1">
          <mxGeometry relative="1" as="geometry">
            <mxPoint x="-881.8900000000001" y="-593.25" as="targetPoint" />
          </mxGeometry>
        </mxCell>
        <mxCell id="bbW2j20G2nXK4502efK3-12" value="Provisioning Coordinator" style="whiteSpace=wrap;html=1;fontSize=20;fontFamily=Nunito;fillColor=#fff2cc;strokeColor=#d6b656;rounded=0;hachureGap=4;fontSource=https%3A%2F%2Ffonts.googleapis.com%2Fcss%3Ffamily%3DNunito;glass=0;" parent="bbW2j20G2nXK4502efK3-1" vertex="1">
          <mxGeometry x="879" y="-1398.75" width="200" height="118.75" as="geometry" />
        </mxCell>
        <mxCell id="bbW2j20G2nXK4502efK3-13" value="&lt;span style=&quot;color: rgb(0, 0, 0); font-style: normal; font-variant-ligatures: normal; font-variant-caps: normal; font-weight: 400; letter-spacing: normal; orphans: 2; text-align: center; text-indent: 0px; text-transform: none; widows: 2; word-spacing: 0px; -webkit-text-stroke-width: 0px; background-color: rgb(255, 255, 255); text-decoration-thickness: initial; text-decoration-style: initial; text-decoration-color: initial; float: none; display: inline !important;&quot;&gt;&lt;font style=&quot;font-size: 16px;&quot;&gt;Provisioning request&lt;/font&gt;&lt;/span&gt;" style="text;whiteSpace=wrap;html=1;fontSize=16;fontFamily=Nunito;fontColor=default;fontSource=https%3A%2F%2Ffonts.googleapis.com%2Fcss%3Ffamily%3DNunito;" parent="bbW2j20G2nXK4502efK3-1" vertex="1">
          <mxGeometry x="879" y="-1227" width="180" height="70" as="geometry" />
        </mxCell>
        <mxCell id="bbW2j20G2nXK4502efK3-14" style="edgeStyle=orthogonalEdgeStyle;rounded=0;orthogonalLoop=1;jettySize=auto;html=1;curved=1;entryX=-0.003;entryY=0.4;entryDx=0;entryDy=0;entryPerimeter=0;exitX=1;exitY=0.5;exitDx=0;exitDy=0;" parent="bbW2j20G2nXK4502efK3-1" source="bbW2j20G2nXK4502efK3-17" target="tdaLxi66xcvZbGbtlcEX-2" edge="1">
          <mxGeometry relative="1" as="geometry">
            <mxPoint x="1489.65" y="-840.0699999999999" as="targetPoint" />
          </mxGeometry>
        </mxCell>
        <mxCell id="bbW2j20G2nXK4502efK3-15" value="API" style="edgeLabel;html=1;align=center;verticalAlign=middle;resizable=0;points=[];fontFamily=Nunito;fontSource=https%3A%2F%2Ffonts.googleapis.com%2Fcss%3Ffamily%3DNunito;fontSize=16;" parent="bbW2j20G2nXK4502efK3-14" vertex="1" connectable="0">
          <mxGeometry x="0.0402" y="7" relative="1" as="geometry">
            <mxPoint y="3" as="offset" />
          </mxGeometry>
        </mxCell>
        <mxCell id="bbW2j20G2nXK4502efK3-16" value="2 - Extract metadata (domain name, DP name, DP version, environment, etc)" style="shape=process;whiteSpace=wrap;html=1;backgroundOutline=1;hachureGap=4;fontFamily=Nunito;fontSize=20;align=left;spacingLeft=8;fontSource=https%3A%2F%2Ffonts.googleapis.com%2Fcss%3Ffamily%3DNunito;" parent="bbW2j20G2nXK4502efK3-1" vertex="1">
          <mxGeometry x="429" y="-950" width="620" height="60" as="geometry" />
        </mxCell>
        <mxCell id="bbW2j20G2nXK4502efK3-17" value="3 - Remove policies and user role" style="shape=process;whiteSpace=wrap;html=1;backgroundOutline=1;hachureGap=4;fontFamily=Nunito;fontSize=20;align=left;spacingLeft=8;fontSource=https%3A%2F%2Ffonts.googleapis.com%2Fcss%3Ffamily%3DNunito;" parent="bbW2j20G2nXK4502efK3-1" vertex="1">
          <mxGeometry x="429.5" y="-870" width="620" height="60" as="geometry" />
        </mxCell>
        <mxCell id="bbW2j20G2nXK4502efK3-18" value="4 - Report outcome" style="shape=process;whiteSpace=wrap;html=1;backgroundOutline=1;hachureGap=4;fontFamily=Nunito;fontSize=20;align=left;spacingLeft=8;fontSource=https%3A%2F%2Ffonts.googleapis.com%2Fcss%3Ffamily%3DNunito;" parent="bbW2j20G2nXK4502efK3-1" vertex="1">
          <mxGeometry x="429.5" y="-790" width="620" height="60" as="geometry" />
        </mxCell>
        <mxCell id="wzFgYCME1AYrPQTrCMkm-0" value="" style="shape=image;verticalLabelPosition=bottom;labelBackgroundColor=default;verticalAlign=top;aspect=fixed;imageAspect=0;image=data:image/jpeg,/9j/2wCEAAgGBgcGBQgHBwcJCQgKDBQNDAsLDBkSEw8UHRofHh0aHBwgJC4nICIsIxwcKDcpLDAxNDQ0Hyc5PTgyPC4zNDIBCQkJDAsMGA0NGDIhHCEyMjIyMjIyMjIyMjIyMjIyMjIyMjIyMjIyMjIyMjIyMjIyMjIyMjIyMjIyMjIyMjIyMv/AABEIARgBGAMBIgACEQEDEQH/xAGiAAABBQEBAQEBAQAAAAAAAAAAAQIDBAUGBwgJCgsQAAIBAwMCBAMFBQQEAAABfQECAwAEEQUSITFBBhNRYQcicRQygZGhCCNCscEVUtHwJDNicoIJChYXGBkaJSYnKCkqNDU2Nzg5OkNERUZHSElKU1RVVldYWVpjZGVmZ2hpanN0dXZ3eHl6g4SFhoeIiYqSk5SVlpeYmZqio6Slpqeoqaqys7S1tre4ubrCw8TFxsfIycrS09TV1tfY2drh4uPk5ebn6Onq8fLz9PX29/j5+gEAAwEBAQEBAQEBAQAAAAAAAAECAwQFBgcICQoLEQACAQIEBAMEBwUEBAABAncAAQIDEQQFITEGEkFRB2FxEyIygQgUQpGhscEJIzNS8BVictEKFiQ04SXxFxgZGiYnKCkqNTY3ODk6Q0RFRkdISUpTVFVWV1hZWmNkZWZnaGlqc3R1dnd4eXqCg4SFhoeIiYqSk5SVlpeYmZqio6Slpqeoqaqys7S1tre4ubrCw8TFxsfIycrS09TV1tfY2dri4+Tl5ufo6ery8/T19vf4+fr/2gAMAwEAAhEDEQA/AH0UUV8kfeBRRRQAUUUUAFFFFABRRRQAUUUUAFFFFABRRRQAUUUUAFFFFABRRRQAUUUUAFFFFABRRRQAUUUUAFFFFABRRRQAUUUUAFFFFABRRRQAUUUUAFFFFABRRRQAUUUUAFFFFABRRRQAUUUUAFFFFABRRRQAUUUUAFFFFABRRRQAUUUUAFFFFABRRRQAUUUUAFFFFABRRRQAUUUUAFFFFABRRRQAUUUUAFFFFABRRRQAUUUUAFFFFABRRRQAUUUUAFFFFABRRRQAUUUUAFFFFABRRRQAUUUUAFFFFABRRRQAUUUUAFFFFABRRRQAUUUUAFFFFABRRRQAUUUUAFFFFABRRRQAUUUUAFFFFABRRRQAUUUUAFFFFABRRRQAUUUUAFFFFABRRRQAUUUUAFFFFABRRRQAUUUUAFFFFABRRRQAUUUUAFFFFABRRRQAUUUUAFFFFABRRRQAUUUUAFFFFABRRRQAUUUUAFFFFABRRRQAUUUUAFFFFABRRRQAUUUUAFFFFABRRRQAUUUUAFFFFABRRRQAUUUUAFFFFABRRRQAUUUUAFFFFABRRRQAUUUUAFFFFABRRRQAUUUUAFFFFABRRRQAUUUUAFFFFABRRRQAUUUUAFFFFABRRRQAUUUUAFFFFABRRRQAUUUUAFFFFABRRRQAUUUUAFFFHWgAorstE8BT3kSXGoytbxOMiJB+8/HPT9fwroj4C0Ty9vlzZ/veac/4V2QwNaava3qedVzTD05ct7+h5XRXW+I/Bh0i2e9tbkPbLjKykBx9D0NYvh/TotW1y2sZ2dY5d2ShAPCk9wfSsJ0JwmqclqzphiqU6TqxeiMyius8WeF7LQbO3mtpbh2kk2ESspGMZ7AVydKrSlSlyy3LoV4V4c8NgoorrfD/AIJm1OJLu9doLZxlVX77j156CilSnVlywQq+Ip0I81R2OSor1mPwNoKJta1dz/eaZs/oRWVqvw8geMyaZO0cg/5ZynKn6HqP1rqll1ZK61OGGb4eUrO6PO6KkuLeW1uHgnjaOWM7WVuoNdR4P8OWOuQXT3ZlzEyhdjY6g+1ctOlKpPkW53Vq8KNP2ktjk6K3vFuj22iatHbWpfy2gEh3tk5LMP6ViQoJJ40PRmAP50pwcJuD3Kp1Y1KaqR2YyivR9U8D6TZ6TeXMRuPMigeRcyDGQpI7V5xV1sPOi0pdTLDYuniE3DoFFemD4daSR/x83v8A32n/AMTSN8OdL2nbdXgbHBLKR/6DXR/Z1fscv9rYbz+480orqtY8C3+nRNPbSC7iXkhRhwPp3/D8q5ZSMgsCV7gHBrlqUp0naasd1HEU60eam7iUV6BpXg3QtW0+O7t7q92uOQXTKnuD8tXf+FdaT/z83v8A32n/AMTXTHAVpK6t95xyzXDxdne/oeZUV6b/AMK60n/n5vf++1/+Jrzi7iW3vZ4VJKxyMgJ64BxWNbDVKKTn1N8PjKWIbVPoQ0V3+keBdN1DSLW7luLtXmjDsFZcAn0+Wr3/AArrSf8An5vf++0/+JraOArSSaRhLNcPFuLvp5HmVFd7qPw62xs+nXjFh0jnA5/4EP8ACuFlikgmeKVCkiMVZT1BHWsKtCpS+NHTh8VSxC/dsZRRXoOleALO40u3nvZrpLiRN7KjKAM8gcqe2KKNCdZ2gGIxVPDpOo9zz6irmqWD6ZqdxZvn905AJ7r2P5YqnWUouLszeMlKKktmFFFFIYV0vgjS01DXRLKMx2q+Zj1bPH+P4VzVdp8OZ0TU7yEn5niBX8Dz/OujCRUq0Uzkx8pRw03HsbvjTxDPo9tFbWhC3E+Tv7oo9Pc/0Nec/wBqah53nfbrnzc53+ac5/Out+JFvILuyucfuyhjz6EHP9f0rh61x1SftnFvRHPllGn9XUravc0NR1vUdVjiS9uWlSIfKMADPqcdT71e8F/8jbY/8D/9AasGt7wX/wAjbY/8D/8AQGrGjJyrRcnfVHTiIRhhpxirKzOp+JH/ACC7P/ruf/QTXnFej/Ej/kF2f/Xc/wDoJrzitsw/js58p/3ZerNbwzp6an4gtbaZd0JJZx6gAnH8h+NeoeINVGh6NJdBQzjCRqehY9Pw7/hXnvgWZYvFEKt/y0jdB9cZ/pXX+PrWS58OBo1LeRMsjADPGCP6104R8mFlOG5xY9KpjYU5/DoefT+INXuJvNfUrkNnI2SFQPoBwK7XwT4luNRkk0++k8yVV3xyHqwHUH1rziup8BWjz+IhcDIS3jZmPYkjaB+pP4Vy4SrU9stb3O7H4ej9Xk7JWWhqfEbT0AtdRRQGLGKQj+LjI/kam+G3/HrqH++n8jU/xGkUaPaxfxNcbh9ApB/mKrfDZx5Oop/EGjP/AKF/hXbZRxyt/Wh515Syx36P9TM+Iv8AyMMH/Xqv/oTVy1t/x9Q/76/zrq/iLGw1y3kI+VrcKD7hmz/MVy1mjSX1vGgLO0qqAO5JrgxSf1iXqepgWvqkfQ9l13/kXtS/69ZP/QTXide1a+4Xw7qJJxm2kH/jprxWurM/jicWS/w5+p7J4ollg8NXksMjxyKg2sjEEcjuK8rTXdXjcMup3mR6zMR+RNeo+Lf+RVvv9wf+hCvHqWZSlGorPoPKKcJUpcyT1/Q9S8H+I5dbglt7vBuoQCXAwHU98diP6iuR8b6Ymn68zxLtjuV83A/vZ+b/AB/GtL4c2kpv7q8wwiWPys9ixIP6AfrSfEe6WTULO2H3oo2c/wDAiB/7LVVG6mDUp7kUYqlmLhS2e/3HN6WdYkLwaXJef33S3dh7ZIB+laX2bxh/1Fv+/j/41X8L61BoWpSXU8UkgaIxhUx3IPf6V1v/AAsew/58bn81/wAawoRpOF51GmdWJlXjUap0lJdzk7t/E9jD511PqcMecbnlcDP51iMzOxZmLMxySTkk113ibxfa65pQtIbaaNvMD7nIxxn0+tchWGI5VK0JXR04TncOapBRfkew6IceDrUjr9l/pXkv267/AOfqb/v4a9e8OhT4VsQ+Nn2cbs+mKp2uheFb0sLWC0nK/e8qbdj64NepXw860IcrtoeJhsVDD1KnPFu7/wAyj4B1O+v7S7ju5XmSEqI3fk85yM9+g/OuZ8dxRx+J5CigF4kZsdz0/oK7m/1TSfCdksSQ+XuBMcMSffPc56fUmvLdU1GbVdRmvZ+HkPCjoo6AflWGMkoUVRbvI6cvhKpiZV4x5YsueF9L/tbXoIHBMSfvJP8AdHb8TgfjXo+ra+mm6xptiSv+kP8Avc9VU8Kf++v5Gsv4f6X9m0t79wfMuThc9kH+Jz+lVNf8I6xq+tzXqT2qoSBGGdgVAHH8P4/jWlGFSjh04K8m/wADHE1KWIxTjUlaMU18/wDh/wAhnxE03/j31KNP+mUpA/FSf1H5VwVe0XOny6l4feyvjH58sW2Rk5Xf/eHTvzXjU0TwTyQyDDxsVYehBwa5swpctTnXU7Mpr89J0nvH8hlFFFcB6wVa06/l0zUIbyH78TZx2I7j8RVWimm07oUoqScXsz2G0v8ASPFWntGQsy4HmQuMMh/z3FZP/CvNMNwX+0XIizny8jp6ZxmvNkkeJw8bsjjoynBFXxr+sCLyxql3tzn/AFzZ/POa9D67Tml7WF2eR/Z1ak37CpZM7Hxdpfh+w0dIlCW90g/cCMZd/ZvUe56fpXN+C/8AkbbH/gf/AKA1Ybu8rl5HZ2PVmOSaI5JIZBJE7I46MpwR+Nc88QpVVUUbJHXTwkoYeVJyu3fV+Z7NrehWuvW8UN1JMixtvBiIBzjHcGsT/hXWkf8APze/99p/8TXnn9pX/wDz+3P/AH9b/Gj+0r//AJ/bn/v63+NdM8ZRm+aVO7OOnl2Jpx5YVbI1/EWmx+GNdt10+aYlY1mVpCCQ25h2A44rv9D1+y8QWO3KLPtxNbt+vHcV5HLPLO4eaV5GAxl2JOPxpqO0bh0Yq46MpwRWNLF+yqNxXuvodFfAe3pRU5e8up6lceAdFnnMqfaIQTkpG42/qDWtFDpnh3TW2eXbWycszHqfc9Sa8qXxLrSKFGp3GB6vk/mao3V9dX0m+6uJZm9XYmuj67Rh71OGpyf2biKlo1al4mp4o1467qQdAVtogVhU9fcn3P8AQUnhfWV0TWUnlJ+zyL5cuOcD1x7H+tYtFcHtp+09r1PV+rU/Y+xtoe0XlhpniOxTzds8LDdHJG3I9wap6T4P0vR7r7TEJZZR91pmB2fTAFeW2mpX1gc2l3ND6hHIB+o6VYn8QavcxGOXUbhkPUb8Z/Ku/wCvUZNTlD3jyf7MxEU6cKnuv1Ov8c+IofszaTaSBpGI89l6KBztz65xXn1FFcNevKtPnZ6uFw0cPT5InuOoWMWqadLZzM6xygBihAI5zxmuei+H2jRSBnku5VHVHkGD+QB/WvOf7Svv+f25/wC/rf40jaheuu1ru4YHsZCf612zxtGbvKF2ebTyzEU1ywq2R6pfa1o3huz8iNowUGFt4cbs+47fU15ZqWoTapqE15OfnkbOOyjsB9BVXrSgkEEEgjoRXNiMVKtZWskduEwMMPeV7yfU7nQvAcN5psdxqT3MM0nzCOMgbV7ZyDzWn/wrrSf+fm9/77T/AOJrzz+0r7/n9uf+/rf40f2lf/8AP7c/9/W/xrSOIw8Uk6dzCeFxcpNqrY9D/wCFdaR/z83v/faf/E15xdxLb3s8KElY5GQE9cA4qT+0r7/n9uf+/rf41WJLMWYkknJJ71jXq0ppckbHRhaFam26s+Y9g0T/AJE61/69f6V5XpWqXOkXyXVsxBB+ZM8OPQ1Et9dpGI1up1QDAUSEDH0qvV1sV7Tl5dHEjDYL2XtOd3Uj12WLT/GPh8MrAbh8r4y0TjqP89RXmn9h3ia4mkyRlZ2cLxyMf3vpjmqUN1cW4IhnljB5IRyM/lSm7uTKJTcSmRRgOXOQPrRWxEK1nKOq38xYbCVMPzRhL3Xt5HrHiDUh4c8P5tVQOu2GBSOB/wDqANcP/wAJ3rn/AD0h/wC/Qrn5rq4uFCzXEsgByA7k4/OoadbGznK8HZCw2W06cbVEpPuej+EfFV1quoS2l+8ZZk3RbVxyOo/Ln8Kw/Hml/Y9YW8jXEV0MnA6OOv58H865aOR4nDxuyOOjKcEVJNd3NwoWa4lkUHIDuSM/jSnivaUfZz1fccMD7LEe1puy7ENFFFch6AUUUUAFFFFABRRRQAUUUUAFFFFABRRRQAUUUUAFFFFABRRRQAUUUUAFFFFABRRRQAUUUUAFFFFABRRRQAUUUUAFFFFABRRRQAUUUUAFFFFABRRRQAUUUUAFFFFABRRRQAUUUUAFFFFABRRRQAUUUUAFFFFABRRRQAUUUUAFFFFABRRRQAUUUUAFFFFABRRRQAUUUUAFFFFABRRRQAUUUUAFFFFABRRRQAUUUUAFFFFABRRRQAUUUUAFFFFABRRRQAUUUUAFFFFABRRRQAUUUUAFFFFABRRRQAUUUUAFFFFABRRRQAUUUUAFFFFABRRRQAUUUUAFFFFABRRRQAUUUUAFFFFABRRRQAUUUUAFFFFABRRRQAUUUUAFFFFABRRRQAUUUUAFFFFABRRRQAUUUUAFFFFABRRRQAUUUUAFFFFABRRRQAUUUUAFFFFABRRRQAUUUUAFFFFABRRRQAUUUUAFFFFABRRRQAUUUUAFFFFABRRRQAUUUUAFFFFABRRRQAUUUUAFFFFABRRRQAUUUUAFFFFABRRRQAUUUUAFFFFABRRRQAUUUUAFFFFABRRRQAUUUUAFFFFABRRRQAUUUUAFFFFABRRRQAUUUUAFFFFABRRRQAUUUUAFFFFABRRRQAUUUUAFFFFABRRRQAUUUUAFFFFABRRRQAUUUUAFFFFABRRRQAUUUUAFFFFABRRRQAUUUUAFFFFABRRRQAUUUUAFFFFABRRRQAUUUUAFFFFABRRRQAUUUUAFFFFABRRRQB//2Q==;" parent="bbW2j20G2nXK4502efK3-1" vertex="1">
          <mxGeometry x="359" y="-1160" width="80" height="80" as="geometry" />
        </mxCell>
        <mxCell id="tdaLxi66xcvZbGbtlcEX-0" value="CDP" style="points=[[0,0],[0.25,0],[0.5,0],[0.75,0],[1,0],[1,0.25],[1,0.5],[1,0.75],[1,1],[0.75,1],[0.5,1],[0.25,1],[0,1],[0,0.75],[0,0.5],[0,0.25]];outlineConnect=0;gradientColor=none;html=1;whiteSpace=wrap;fontSize=12;fontStyle=0;container=1;pointerEvents=0;collapsible=0;recursiveResize=0;shape=mxgraph.aws4.group;grIcon=mxgraph.aws4.group_aws_cloud;strokeColor=#232F3E;fillColor=none;verticalAlign=top;align=left;spacingLeft=30;fontColor=#232F3E;dashed=0;movable=1;resizable=1;rotatable=1;deletable=1;editable=1;locked=0;connectable=1;" parent="bbW2j20G2nXK4502efK3-1" vertex="1">
          <mxGeometry x="1460" y="-1070" width="400" height="370" as="geometry" />
        </mxCell>
        <mxCell id="tdaLxi66xcvZbGbtlcEX-1" value="" style="group" parent="tdaLxi66xcvZbGbtlcEX-0" vertex="1" connectable="0">
          <mxGeometry x="107.5" y="30" width="185" height="110" as="geometry" />
        </mxCell>
        <mxCell id="tdaLxi66xcvZbGbtlcEX-2" value="&lt;span&gt;Ranger&lt;/span&gt;" style="verticalLabelPosition=middle;verticalAlign=middle;html=1;shape=mxgraph.basic.rect;fillColor2=none;strokeWidth=1;size=20;indent=5;strokeColor=#CC0000;labelPosition=center;align=center;fontStyle=0" parent="tdaLxi66xcvZbGbtlcEX-1" vertex="1">
          <mxGeometry width="185" height="110" as="geometry" />
        </mxCell>
        <mxCell id="tdaLxi66xcvZbGbtlcEX-3" value="" style="shape=image;verticalLabelPosition=bottom;labelBackgroundColor=default;verticalAlign=top;aspect=fixed;imageAspect=0;image=data:image/jpeg,/9j/4AAQSkZJRgABAQAAAQABAAD/2wCEAAkGBxISEhISEhIWEhUXGBcaGBgXFRoYFxgYGx8bFxgiFx0dHSghHR4lHRoXITIiJisuLi4vFx82ODYtNygtLisBCgoKDg0OGxAQGi0lIB0rLS0tKy0tLSsuKystLS0tLSsrLS0tLS0tLSstLS0tLS0rLS0tLS0tLS0tLS0tNy0tN//AABEIAIgAiAMBIgACEQEDEQH/xAAcAAACAgMBAQAAAAAAAAAAAAAABwUGAQIECAP/xABLEAABAgMEBwQFCgEICwAAAAABAgMABBEFEiExBgcTQVFhcSKBkaEUMnKSsSMzQlJTYoKiwfAkF0NkstHT4eMWJURUY6Oks8LS8f/EABgBAAMBAQAAAAAAAAAAAAAAAAADBAIB/8QALBEAAgIBBAAEBAcBAAAAAAAAAAECEQMhMUFREjJhcRMjgcFCUpGhseHwBP/aAAwDAQACEQMRAD8AeMEEEABBGIruk2mEtJAhar7lMG04q4i9uSOZ84Em3SON0rZYFGKnb+n0nLVSFbdwfRbII71VoO6vSKFOW5aNrKUhobNkesEm62kcXV78N3lHCW7PlMFEz7w3IN2XSeas3KGmWBrjDo4lyIllfBLzOntpTaiiVbuDg2i+un3lUIHgI45qxbTXjNTAaB+3mgnwSFGkRM9pfNOC4lYl2tzbADaRy7OJHUxBqUTicT4/rDlFrakKc099Szp0YXXs2hJFXATJrXkaR3NSdtS4vtrdcQN7boeT7tVfARSax9pWbcbN5tamzxQopPiMY603vTOKSRf7L1nTDRuTbN+hxIGzcHUEXT+XrDAsHSeVm/mXRe3oV2V+BzHMVEJ5rS9awETjTc4gYVWLro9lxONY+qLDl5nt2e+UuDEMPEIcr/wljsqPgRxhcsa9vbYZHJLjVD3TGYT1iawJqTXsJ5CnAMDeBDyR3+v358TDPsa2mJpF9hwODeAReT7QzEIlBxHxmmSYgjAjMZNhBBBABiIu27fl5RN591KN4TWq1eykYmF/rP0qmW5kSss4WwEJvXKX1KVkK/RwpvHrRW5ux5ZlZNoTi3XvptNJKnKnGi3FYVyr3wyOPliZZa2Ji29YM1Nr2Ei2pAVgCkXnVceSBljTvEQ6rIlpSq7Qc272fozS6m9n8s59HjTPfjSkc05pYoILUm2mTaOBuEl1XtuZ+HGK4Tjj3/vl+sUKNLTYQ5W9dyatnSV6YAbF1lkeqy2LqB1p6x9rfELWGTpRoi09LJmpRAbUGkOFCRRLjZAJKRuUneN/UiFzLsKcUENpK1HIJF4k9BjHYSi1oZnGSeppWCsXqytV824Ap1aJcHcarX4AgAd4ibGqJF0gzar3HZpp4Xv1g+LDs18KfQqqwViT0ksJ2TeUy6OaVAdlac6iIusbTvUW1WhmsZCqYjDpgfGNawVgAs0ppSFoDM816U0MAvAPtj7ixiRyPwj7psV1v+Ksx9T6U4kI7L7Y4LQMx0qMMqRUqx9pOccaWHGlqbWMlJJBH+EYcev07NKXYz9G9aIwbnU3TltUDDh20jI9K9BDHkp1t5IW0tLiTkUqqIRn+kMtNCk+x2/94Yolz8afVX1MZFnqYbcmrOni4hF3aBN5p1IJ7N5JoFprn/ZWEyxp+jHRyteo+0wRTNV+kLs5LubdQW42qhUBSqSKio41vDpSCEtU6KIu1ZT9Mm/9fMVyU5K/FIx8IpukyyZyaJz2ztfeMXTWSAi2JVfEMK60cI7sop+mCLs9OA/bunxUVfrFUH/BHPd+5E1grGtYKw0UNHVVa5U05LZuNVcaGFVIJ+UR0Jp3qB+jF10W0blpa+4yKlZrfOd1QCgE8E0IhHaLNPrmmUy5KXCoUUK9kfSJ5AVPdHoiSF0qRvF0/hIoPNKolyqmV4XaOuMxw2lajEum8+6hofeUBXoN8U20daksk3JdtyZVuoLiSeAJxr+GFKLeyGuSW7LhbNjsTSLj7YcTurmDxBGI7jCy051eNsMmYlb5uYrQTe7P1k4Vw38ieESibbt2a+ZlUSyT9JYoodb5x7kGOhOiFpPj+KtNQBwKWgQkjeDS58IZC4816CpVPgTNYKw52dU0kM3H1H2kU7uxGj+qaTNbrz6TzUggd1wV3Q1ZoCnhmJusFY6bXkiw+6yVBRbWpBIyJSaRyVhy1FNVobViyaFmonwcvQn6910j81PGKzWLLofg1aK9wlFo5VWpGfhGZ+V/Q7DzL6l41IJ+SmlcVoHgCf1gjo1JtUlX1cXiPBKP7YIly+dlmLyIiNd7BS7KPDelafdKVD+sYqmsVI9PdWMnEtuJ5hSEE+ZMMXXTKXpNtwZtujuCgUnzuwu9MO2zZsxuXLbM81MKKT/4w7E7UV7oRlWsis1grGsddl2c7MuJaZQVrVkBw5nIDmYbaq2I1vQtuq22JaVemHZhYR8l2Scz2k3gneT6poOB4RZ39K7QtAlFmy5abyLyxQ06nBJ5CpEdGi2q9lqjk2duvDsZNp6719+HKLbpDbDMhLqdWKJTRKUJoKn6ISPjwAJ3RLKcXK0tSqMJeGm9CpWXqwSpW1nphcws4kBRA6FR7R8osanLNs1NCWZbDIU2ihzAqpXnCwGmFoWlMtyyHjLJcXdo0MUjeSrBRoAcAoVicXqfKiVGeqSd7FT/AN2OtfnYJr8COu1tbbCapl2VOncpZCE9wxJ8oiZTW89fG1l2yjfcKgqnKtakY4R1fyOf07/p/wDNgOpz+m/8j/NjvyqOfNGXKzzbjSXkqFxSQsKOAukVqdw74Xem+stASpiSVeUahTo9VPG5xPPLhXdy27oHaXo6WW5sTDTYN1r5onEq4lKjjvOELGZZU2pSFpKFJNCkggg8wcoMeOLd2GTJJKqNVLJJJNScSTmTvrzjFYxWCsUkxmsWaxDcs20V5X1S7aT+IrV5ARWKxZ5v5OyZdJ/n5l1z8LaQ38axme3v9jcFbGpqmlrlnNHK+pxX5ikeSYInNE5TZSUq3ShS0ivtEVV5kwRHN3Jstgqijm05kNvIzTYFTsyocyjtgeKfOEv89ZAOapaY8G3h/wC4j0G4K1BxhGWNZ2zm7Rss1o6hxLdd62yXWT3pFe+GY3pXWonLHW+9Cj1h06nRKiVqhSfSFKO1FRfoCQgAZ3btDhvJhKGCsPnHxLcRCXh4PVinABVRA5kgQttcc0y7LNhEw2paHASgOJKiCCmt2tcKj3jCcrBWMRw07sZLP4lVEro3bSpN9MwhCVqSFABVaAEXcaHgTvj0RozPOPyrDzqQlbiAohNaAHFNKknKkeaJNkuOIbTmtSUjqSAPMx6kk2A22htOSEhI6AUHwjGerNf89kFp5pEqQltshKVLK0pSFZVOJrSm4GKFIa33b428ugo33CoEbica1pnT9j6a85/tS0uDkFOEdewn4LhfWJYMxNrCGGlKqaFVOwkbyVZDL9OEEILw2wnkl46iemJV9K0JWk1SoBQPEHEQrdd1kIAYm0gBRVs1n62BUivS6od8M6zZQMstNJxDaEoHRICR8IXOvG0EhmXl69or2hHBKUqT5lX5YXj8w3J5BQVgrGsFYtIUbVi7W1I35mzLP+o0wlY4LcO0dPumvdFd0Ts70icl2qVClgq9lPaV+UKi8aBD022JibzQguKSd2PybQP4Cr3YXN89fcZBWOJIwggEERlwGFFrXlVSs9LWg2Mym97beIvclIoKfcMN2IDTewxOyjrP06Xm+S04jxxT0UY1B07MTVoRmnMgluaUtv5mYCXmjxS52qdyiR3RX6xcJJszsiuVIrMyZUtoHNTJ+cRzKTjTfSkU4/v97+sVxfBFPszWCsawRswWvVlI7a0pcEYIJcPK4Kp/Ncj0PCf1FyFXJl8j1UpQPxG8r+qmG6+4EpUpWAAJPQA18okyu5FmFVGyuWhp7ZzLi2nJi6tCqKGzcNCN1Upp5xZGVhSUqSaggEdDlHle0ZovOuunNa1rPVRqfjHobV1aG3s6WVvSjZnkUdgeQB74J41FJncWRybRH6a6ftyCyxsVuOlIUK0DdDhUmtTjup4Qkratd2beU+8arV7oGQAG7Cn+OcMzXnZvZlpkDIqbUeSu0jwovxhRw3DGNWJzSl4qM1grGsdFnya3nUNNi8tZCQOJPHkBj/8AIdxYhJ7Fl0aHo0nOTpwUsejs81LxdI4FKMjzIhl6n7H2EltVCi31XudwdlHd6yvxxRJ6TE1OSllS5qzL9lSxvX60wv4gcxzh4yrKW0IQgBKUpCUgZBIFAB3RLkZXijrfR9hBAIISUGY1MbQQAKHWTYjslNItSUw7QLgGSVnCqvuLqQeZPHCu2lo0J5Cp6z0i6QVPMV7bTmag2KdoH1h06CHzNsJcStCwFJUCFJORBwP6wptMdBlyAROWaVp2RBWkEkil7tgb0gEgjcOOMOhPh/70J8kK146+4qontCtHPT5kMXy2LqlKUBWgGAww3lPjElaVnotFC5uTQEPpF6Ylk+bjP1knhnXqIitFNKXrPW44whtalpCTtEqVQVrhdWnM092H3a9SeknrsPjQvRlFnsKZSsuXllZUU3akhIyqdyREna8kX2HWb1zaIUi9StAoUOGG6sJv+WGf+ylvcc/vYwdcE/8AZS3uOf3kT/DndlPxYVRWdMrDRIzKpZDm1upQSSm7RRF4bzuIhjajLQqzMsE4pWlY6LF006FI96FRbNprmXnJhyl9w3jQEDlSpJpSm+O3RXSZ6QdU6yEKKklBCwoppUGuBGOHhWHyi3AnjNRnZ6D0qsJE9LLl1qKLxSQoCpSQQcsOFO+EFpnYaJGaVLocLt1KSSU3aKVjTM7iIsg1wT/2Ut7jnn8pFRnJh+0JpSwi+88r1UA03UABJIAAzrhGMcZR32GZZxltuclnSLj7iGWkla1miU/HkAM6xcXGBY7awVBVoOgpTdNRLtHC9X7RW47gRlXtfJ1wSCDJyh20872HnUVOzr/NtEZq3FXHLH1b/obq6aZDL81V2ZSQrE1SggAJFMlXePGNTnz+3f8ARmELPrqt0TMoyXnk0feAqCMUN5hJ5nM9Bwi9pgEZiWTt2VxSSoyIIBBHDQQQQQAEaLH7/e6N4IAFLptoO9Lu+n2bVKkm8ptAxBzJbG8HejrnXCrLYl7V7TdyWnt6Dg1MHeUHJLh+qcK06x6AUYoOm+rdqbvPS9GH8zhRCzzp6qvvCGwycMRPHyhHzsm4ytTbqC2tJoUqFCP3nHwrF3mrVcbIlLZllPJSKJcwD6BxbcyWnkTTiTHFMaHl1Jds95M62MSgdl9A++2TUjpFCl3oTOPRVawVjslbKfdc2LbLi3BmgIN4c1DdTnxixJ0flZPtWg9tHB/srCry68HXMkdBj8I74kt9Tii3toQ9gaPvziiGk3UpxcdUbrbad5Wo/AY790WBNooY/g7KSp15zsrmaEOK4pYH0EcVd+6o+sozP2vRmXbTLSaT6qQUMp5qObi/14Q19EdDpez0/Ji+4fWcUBePT6o5Qqc0t9+hsMd7ETq90DTIpDz1FzKhmMmxvSjieKu7AVrekxkRmJm23bKoxUVSCCCCA0EEEEABBBBAAQQQQAEEEEAEfbFkMTSC2+0l1PMYjocx1EK63NVDzStrZ7xqDUIUopcHsLBHnTrBBGoTa2MTgpK2RiW9IZisqrboAwUpQDYIP1nKC+KVwBOe+LLozqmZbIcnF7dX2aahsdd6+mA5RmCNSyNKkYhjT1YyZZlKEhCEhKRgAkUAHICPrBBCxwQQQQAEEEEABBBBAB//2Q==;" parent="tdaLxi66xcvZbGbtlcEX-1" vertex="1">
          <mxGeometry x="3" y="3" width="20" height="20" as="geometry" />
        </mxCell>
        <mxCell id="tdaLxi66xcvZbGbtlcEX-4" value="" style="group" parent="tdaLxi66xcvZbGbtlcEX-0" vertex="1" connectable="0">
          <mxGeometry x="30" y="170" width="350" height="170" as="geometry" />
        </mxCell>
        <mxCell id="tdaLxi66xcvZbGbtlcEX-5" value="" style="verticalLabelPosition=bottom;verticalAlign=top;html=1;shape=mxgraph.basic.rect;fillColor2=none;strokeWidth=1;size=20;indent=5;strokeColor=#7aa116;" parent="tdaLxi66xcvZbGbtlcEX-4" vertex="1">
          <mxGeometry width="350" height="170" as="geometry" />
        </mxCell>
        <mxCell id="tdaLxi66xcvZbGbtlcEX-6" value="" style="sketch=0;outlineConnect=0;fontColor=#232F3E;gradientColor=none;fillColor=#7AA116;strokeColor=none;dashed=0;verticalLabelPosition=bottom;verticalAlign=top;align=center;html=1;fontSize=12;fontStyle=0;aspect=fixed;pointerEvents=1;shape=mxgraph.aws4.bucket;" parent="tdaLxi66xcvZbGbtlcEX-4" vertex="1">
          <mxGeometry x="2.9166666666666665" y="2" width="19.23" height="20" as="geometry" />
        </mxCell>
        <mxCell id="tdaLxi66xcvZbGbtlcEX-7" value="" style="group" parent="tdaLxi66xcvZbGbtlcEX-4" vertex="1" connectable="0">
          <mxGeometry x="14.583333333333332" y="52" width="320.8333333333333" height="100" as="geometry" />
        </mxCell>
        <mxCell id="tdaLxi66xcvZbGbtlcEX-8" value="" style="rounded=0;whiteSpace=wrap;html=1;strokeColor=#0080f0;" parent="tdaLxi66xcvZbGbtlcEX-7" vertex="1">
          <mxGeometry width="320.8333333333333" height="100" as="geometry" />
        </mxCell>
        <mxCell id="tdaLxi66xcvZbGbtlcEX-9" value="&lt;font style=&quot;font-size: 12px;&quot;&gt;mesh/domains/ &lt;i&gt;&amp;lt;domain name&amp;gt;&lt;/i&gt; /data-products/ &lt;i&gt;&amp;lt;data product name&amp;gt;&lt;/i&gt; / &lt;i&gt;&amp;lt;data product environment&amp;gt;&lt;/i&gt;&amp;nbsp;&lt;/font&gt;/ &lt;i&gt;&amp;lt;data product major version&amp;gt;&lt;/i&gt; /" style="text;html=1;strokeColor=none;fillColor=none;align=center;verticalAlign=middle;whiteSpace=wrap;rounded=0;" parent="tdaLxi66xcvZbGbtlcEX-7" vertex="1">
          <mxGeometry x="14.583333333333332" y="46" width="291.66666666666663" height="30" as="geometry" />
        </mxCell>
        <mxCell id="tdaLxi66xcvZbGbtlcEX-10" value="" style="html=1;verticalLabelPosition=bottom;align=center;labelBackgroundColor=#ffffff;verticalAlign=top;strokeWidth=2;strokeColor=#0080F0;shadow=0;dashed=0;shape=mxgraph.ios7.icons.folder;" parent="tdaLxi66xcvZbGbtlcEX-7" vertex="1">
          <mxGeometry x="4.38" y="3" width="25.63" height="19.5" as="geometry" />
        </mxCell>
      </root>
    </mxGraphModel>
  </diagram>
  <diagram name="UpdateACL" id="tf-El3kI3R5QkcCwGRYi">
    <mxGraphModel dx="1687" dy="2687" grid="1" gridSize="10" guides="1" tooltips="1" connect="1" arrows="1" fold="1" page="1" pageScale="1" pageWidth="2336" pageHeight="1654" math="0" shadow="0">
      <root>
        <mxCell id="hU6FJw1fOwP_xru4unpn-0" />
        <mxCell id="hU6FJw1fOwP_xru4unpn-1" parent="hU6FJw1fOwP_xru4unpn-0" />
        <mxCell id="hU6FJw1fOwP_xru4unpn-2" value="&lt;font style=&quot;font-size: 25px;&quot;&gt;CDP S3 SP&lt;/font&gt;" style="rounded=0;whiteSpace=wrap;html=1;hachureGap=4;fontFamily=Nunito;fontSize=20;verticalAlign=top;fillColor=#dae8fc;strokeColor=#6c8ebf;fontSource=https%3A%2F%2Ffonts.googleapis.com%2Fcss%3Ffamily%3DNunito;" parent="hU6FJw1fOwP_xru4unpn-1" vertex="1">
          <mxGeometry x="399" y="-1120" width="681" height="630" as="geometry" />
        </mxCell>
        <mxCell id="hU6FJw1fOwP_xru4unpn-3" value="1 - Validate request" style="shape=process;whiteSpace=wrap;html=1;backgroundOutline=1;hachureGap=4;fontFamily=Nunito;fontSize=20;align=left;spacingLeft=8;fontSource=https%3A%2F%2Ffonts.googleapis.com%2Fcss%3Ffamily%3DNunito;" parent="hU6FJw1fOwP_xru4unpn-1" vertex="1">
          <mxGeometry x="429" y="-1030" width="620" height="60" as="geometry" />
        </mxCell>
        <mxCell id="hU6FJw1fOwP_xru4unpn-4" value="&lt;font data-font-src=&quot;https://fonts.googleapis.com/css?family=Nunito&quot; face=&quot;Nunito&quot;&gt;Idempotent, ie does not fail if a user/group is already in the user role.&lt;/font&gt;" style="shape=callout;whiteSpace=wrap;html=1;perimeter=calloutPerimeter;hachureGap=4;fontFamily=Architects Daughter;fontSource=https%3A%2F%2Ffonts.googleapis.com%2Fcss%3Ffamily%3DArchitects%2BDaughter;fontSize=20;position2=0;size=40;position=0.13;" parent="hU6FJw1fOwP_xru4unpn-1" vertex="1">
          <mxGeometry x="1079" y="-1250" width="241" height="150" as="geometry" />
        </mxCell>
        <mxCell id="hU6FJw1fOwP_xru4unpn-5" style="edgeStyle=orthogonalEdgeStyle;shape=connector;curved=1;rounded=0;hachureGap=4;orthogonalLoop=1;jettySize=auto;html=1;entryX=0;entryY=0.5;entryDx=0;entryDy=0;labelBackgroundColor=default;strokeColor=default;fontFamily=Nunito;fontSize=16;fontColor=default;endArrow=classic;fontSource=https%3A%2F%2Ffonts.googleapis.com%2Fcss%3Ffamily%3DNunito;" parent="hU6FJw1fOwP_xru4unpn-1" source="hU6FJw1fOwP_xru4unpn-7" target="hU6FJw1fOwP_xru4unpn-10" edge="1">
          <mxGeometry relative="1" as="geometry" />
        </mxCell>
        <mxCell id="hU6FJw1fOwP_xru4unpn-6" value="Request access" style="edgeLabel;html=1;align=center;verticalAlign=middle;resizable=0;points=[];fontSize=16;fontFamily=Nunito;fontColor=default;fontSource=https%3A%2F%2Ffonts.googleapis.com%2Fcss%3Ffamily%3DNunito;" parent="hU6FJw1fOwP_xru4unpn-5" vertex="1" connectable="0">
          <mxGeometry x="-0.0027" y="-2" relative="1" as="geometry">
            <mxPoint x="4" y="-25" as="offset" />
          </mxGeometry>
        </mxCell>
        <mxCell id="hU6FJw1fOwP_xru4unpn-7" value="User" style="shape=umlActor;verticalLabelPosition=bottom;verticalAlign=top;html=1;outlineConnect=0;hachureGap=4;fontFamily=Nunito;fontSize=16;fontColor=default;fontSource=https%3A%2F%2Ffonts.googleapis.com%2Fcss%3Ffamily%3DNunito;" parent="hU6FJw1fOwP_xru4unpn-1" vertex="1">
          <mxGeometry x="369" y="-1398" width="60" height="117.5" as="geometry" />
        </mxCell>
        <mxCell id="hU6FJw1fOwP_xru4unpn-8" value="" style="edgeStyle=orthogonalEdgeStyle;shape=connector;curved=1;rounded=0;hachureGap=4;orthogonalLoop=1;jettySize=auto;html=1;labelBackgroundColor=default;strokeColor=default;fontFamily=Nunito;fontSize=16;fontColor=default;endArrow=classic;fontSource=https%3A%2F%2Ffonts.googleapis.com%2Fcss%3Ffamily%3DNunito;" parent="hU6FJw1fOwP_xru4unpn-1" source="hU6FJw1fOwP_xru4unpn-10" target="hU6FJw1fOwP_xru4unpn-12" edge="1">
          <mxGeometry relative="1" as="geometry" />
        </mxCell>
        <mxCell id="hU6FJw1fOwP_xru4unpn-9" value="Request access" style="edgeLabel;html=1;align=center;verticalAlign=middle;resizable=0;points=[];fontSize=16;fontFamily=Nunito;fontColor=default;fontSource=https%3A%2F%2Ffonts.googleapis.com%2Fcss%3Ffamily%3DNunito;" parent="hU6FJw1fOwP_xru4unpn-8" vertex="1" connectable="0">
          <mxGeometry x="0.3239" relative="1" as="geometry">
            <mxPoint x="-26" y="-24" as="offset" />
          </mxGeometry>
        </mxCell>
        <mxCell id="hU6FJw1fOwP_xru4unpn-10" value="&lt;font style=&quot;font-size: 36px;&quot;&gt;Witboost&lt;/font&gt;" style="rounded=0;whiteSpace=wrap;html=1;hachureGap=4;fontFamily=Nunito;fontSize=20;verticalAlign=middle;fillColor=#fff2cc;strokeColor=#d6b656;fontSource=https%3A%2F%2Ffonts.googleapis.com%2Fcss%3Ffamily%3DNunito;glass=0;" parent="hU6FJw1fOwP_xru4unpn-1" vertex="1">
          <mxGeometry x="559" y="-1400" width="200" height="120" as="geometry" />
        </mxCell>
        <mxCell id="hU6FJw1fOwP_xru4unpn-11" style="edgeStyle=orthogonalEdgeStyle;shape=connector;curved=1;rounded=0;hachureGap=4;orthogonalLoop=1;jettySize=auto;html=1;labelBackgroundColor=default;strokeColor=default;fontFamily=Nunito;fontSize=16;fontColor=default;endArrow=classic;fontSource=https%3A%2F%2Ffonts.googleapis.com%2Fcss%3Ffamily%3DNunito;entryX=0.5;entryY=0;entryDx=0;entryDy=0;" parent="hU6FJw1fOwP_xru4unpn-1" source="hU6FJw1fOwP_xru4unpn-12" target="hU6FJw1fOwP_xru4unpn-2" edge="1">
          <mxGeometry relative="1" as="geometry">
            <mxPoint x="-881.8900000000001" y="-593.25" as="targetPoint" />
          </mxGeometry>
        </mxCell>
        <mxCell id="hU6FJw1fOwP_xru4unpn-12" value="Provisioning Coordinator" style="whiteSpace=wrap;html=1;fontSize=20;fontFamily=Nunito;fillColor=#fff2cc;strokeColor=#d6b656;rounded=0;hachureGap=4;fontSource=https%3A%2F%2Ffonts.googleapis.com%2Fcss%3Ffamily%3DNunito;glass=0;" parent="hU6FJw1fOwP_xru4unpn-1" vertex="1">
          <mxGeometry x="879" y="-1398.75" width="200" height="118.75" as="geometry" />
        </mxCell>
        <mxCell id="hU6FJw1fOwP_xru4unpn-13" value="&lt;span style=&quot;color: rgb(0, 0, 0); font-style: normal; font-variant-ligatures: normal; font-variant-caps: normal; font-weight: 400; letter-spacing: normal; orphans: 2; text-align: center; text-indent: 0px; text-transform: none; widows: 2; word-spacing: 0px; -webkit-text-stroke-width: 0px; background-color: rgb(255, 255, 255); text-decoration-thickness: initial; text-decoration-style: initial; text-decoration-color: initial; float: none; display: inline !important;&quot;&gt;&lt;font style=&quot;font-size: 16px;&quot;&gt;Update ACL Request&lt;/font&gt;&lt;/span&gt;" style="text;whiteSpace=wrap;html=1;fontSize=16;fontFamily=Nunito;fontColor=default;fontSource=https%3A%2F%2Ffonts.googleapis.com%2Fcss%3Ffamily%3DNunito;" parent="hU6FJw1fOwP_xru4unpn-1" vertex="1">
          <mxGeometry x="879" y="-1227" width="180" height="70" as="geometry" />
        </mxCell>
        <mxCell id="hU6FJw1fOwP_xru4unpn-16" value="2 - Extract metadata (domain name, DP name, DP version, environment, etc)" style="shape=process;whiteSpace=wrap;html=1;backgroundOutline=1;hachureGap=4;fontFamily=Nunito;fontSize=20;align=left;spacingLeft=8;fontSource=https%3A%2F%2Ffonts.googleapis.com%2Fcss%3Ffamily%3DNunito;" parent="hU6FJw1fOwP_xru4unpn-1" vertex="1">
          <mxGeometry x="429" y="-929" width="620" height="60" as="geometry" />
        </mxCell>
        <mxCell id="hU6FJw1fOwP_xru4unpn-18" value="5 - Report outcome" style="shape=process;whiteSpace=wrap;html=1;backgroundOutline=1;hachureGap=4;fontFamily=Nunito;fontSize=20;align=left;spacingLeft=8;fontSource=https%3A%2F%2Ffonts.googleapis.com%2Fcss%3Ffamily%3DNunito;" parent="hU6FJw1fOwP_xru4unpn-1" vertex="1">
          <mxGeometry x="429.5" y="-610" width="620" height="60" as="geometry" />
        </mxCell>
        <mxCell id="hU6FJw1fOwP_xru4unpn-20" value="CDP" style="points=[[0,0],[0.25,0],[0.5,0],[0.75,0],[1,0],[1,0.25],[1,0.5],[1,0.75],[1,1],[0.75,1],[0.5,1],[0.25,1],[0,1],[0,0.75],[0,0.5],[0,0.25]];outlineConnect=0;gradientColor=none;html=1;whiteSpace=wrap;fontSize=12;fontStyle=0;container=1;pointerEvents=0;collapsible=0;recursiveResize=0;shape=mxgraph.aws4.group;grIcon=mxgraph.aws4.group_aws_cloud;strokeColor=#232F3E;fillColor=none;verticalAlign=top;align=left;spacingLeft=30;fontColor=#232F3E;dashed=0;movable=1;resizable=1;rotatable=1;deletable=1;editable=1;locked=0;connectable=1;" parent="hU6FJw1fOwP_xru4unpn-1" vertex="1">
          <mxGeometry x="1460" y="-1070" width="400" height="370" as="geometry" />
        </mxCell>
        <mxCell id="hU6FJw1fOwP_xru4unpn-21" value="" style="group" parent="hU6FJw1fOwP_xru4unpn-20" vertex="1" connectable="0">
          <mxGeometry x="107.5" y="30" width="185" height="110" as="geometry" />
        </mxCell>
        <mxCell id="hU6FJw1fOwP_xru4unpn-22" value="&lt;span&gt;Ranger&lt;/span&gt;" style="verticalLabelPosition=middle;verticalAlign=middle;html=1;shape=mxgraph.basic.rect;fillColor2=none;strokeWidth=1;size=20;indent=5;strokeColor=#CC0000;labelPosition=center;align=center;fontStyle=0" parent="hU6FJw1fOwP_xru4unpn-21" vertex="1">
          <mxGeometry width="185" height="110" as="geometry" />
        </mxCell>
        <mxCell id="hU6FJw1fOwP_xru4unpn-23" value="" style="shape=image;verticalLabelPosition=bottom;labelBackgroundColor=default;verticalAlign=top;aspect=fixed;imageAspect=0;image=data:image/jpeg,/9j/4AAQSkZJRgABAQAAAQABAAD/2wCEAAkGBxISEhISEhIWEhUXGBcaGBgXFRoYFxgYGx8bFxgiFx0dHSghHR4lHRoXITIiJisuLi4vFx82ODYtNygtLisBCgoKDg0OGxAQGi0lIB0rLS0tKy0tLSsuKystLS0tLSsrLS0tLS0tLSstLS0tLS0rLS0tLS0tLS0tLS0tNy0tN//AABEIAIgAiAMBIgACEQEDEQH/xAAcAAACAgMBAQAAAAAAAAAAAAAABwUGAQIECAP/xABLEAABAgMEBwQFCgEICwAAAAABAgMABBEFEiExBgcTQVFhcSKBkaEUMnKSsSMzQlJTYoKiwfAkF0NkstHT4eMWJURUY6Oks8LS8f/EABgBAAMBAQAAAAAAAAAAAAAAAAADBAIB/8QALBEAAgIBBAAEBAcBAAAAAAAAAAECEQMhMUFREjJhcRMjgcFCUpGhseHwBP/aAAwDAQACEQMRAD8AeMEEEABBGIruk2mEtJAhar7lMG04q4i9uSOZ84Em3SON0rZYFGKnb+n0nLVSFbdwfRbII71VoO6vSKFOW5aNrKUhobNkesEm62kcXV78N3lHCW7PlMFEz7w3IN2XSeas3KGmWBrjDo4lyIllfBLzOntpTaiiVbuDg2i+un3lUIHgI45qxbTXjNTAaB+3mgnwSFGkRM9pfNOC4lYl2tzbADaRy7OJHUxBqUTicT4/rDlFrakKc099Szp0YXXs2hJFXATJrXkaR3NSdtS4vtrdcQN7boeT7tVfARSax9pWbcbN5tamzxQopPiMY603vTOKSRf7L1nTDRuTbN+hxIGzcHUEXT+XrDAsHSeVm/mXRe3oV2V+BzHMVEJ5rS9awETjTc4gYVWLro9lxONY+qLDl5nt2e+UuDEMPEIcr/wljsqPgRxhcsa9vbYZHJLjVD3TGYT1iawJqTXsJ5CnAMDeBDyR3+v358TDPsa2mJpF9hwODeAReT7QzEIlBxHxmmSYgjAjMZNhBBBABiIu27fl5RN591KN4TWq1eykYmF/rP0qmW5kSss4WwEJvXKX1KVkK/RwpvHrRW5ux5ZlZNoTi3XvptNJKnKnGi3FYVyr3wyOPliZZa2Ji29YM1Nr2Ei2pAVgCkXnVceSBljTvEQ6rIlpSq7Qc272fozS6m9n8s59HjTPfjSkc05pYoILUm2mTaOBuEl1XtuZ+HGK4Tjj3/vl+sUKNLTYQ5W9dyatnSV6YAbF1lkeqy2LqB1p6x9rfELWGTpRoi09LJmpRAbUGkOFCRRLjZAJKRuUneN/UiFzLsKcUENpK1HIJF4k9BjHYSi1oZnGSeppWCsXqytV824Ap1aJcHcarX4AgAd4ibGqJF0gzar3HZpp4Xv1g+LDs18KfQqqwViT0ksJ2TeUy6OaVAdlac6iIusbTvUW1WhmsZCqYjDpgfGNawVgAs0ppSFoDM816U0MAvAPtj7ixiRyPwj7psV1v+Ksx9T6U4kI7L7Y4LQMx0qMMqRUqx9pOccaWHGlqbWMlJJBH+EYcev07NKXYz9G9aIwbnU3TltUDDh20jI9K9BDHkp1t5IW0tLiTkUqqIRn+kMtNCk+x2/94Yolz8afVX1MZFnqYbcmrOni4hF3aBN5p1IJ7N5JoFprn/ZWEyxp+jHRyteo+0wRTNV+kLs5LubdQW42qhUBSqSKio41vDpSCEtU6KIu1ZT9Mm/9fMVyU5K/FIx8IpukyyZyaJz2ztfeMXTWSAi2JVfEMK60cI7sop+mCLs9OA/bunxUVfrFUH/BHPd+5E1grGtYKw0UNHVVa5U05LZuNVcaGFVIJ+UR0Jp3qB+jF10W0blpa+4yKlZrfOd1QCgE8E0IhHaLNPrmmUy5KXCoUUK9kfSJ5AVPdHoiSF0qRvF0/hIoPNKolyqmV4XaOuMxw2lajEum8+6hofeUBXoN8U20daksk3JdtyZVuoLiSeAJxr+GFKLeyGuSW7LhbNjsTSLj7YcTurmDxBGI7jCy051eNsMmYlb5uYrQTe7P1k4Vw38ieESibbt2a+ZlUSyT9JYoodb5x7kGOhOiFpPj+KtNQBwKWgQkjeDS58IZC4816CpVPgTNYKw52dU0kM3H1H2kU7uxGj+qaTNbrz6TzUggd1wV3Q1ZoCnhmJusFY6bXkiw+6yVBRbWpBIyJSaRyVhy1FNVobViyaFmonwcvQn6910j81PGKzWLLofg1aK9wlFo5VWpGfhGZ+V/Q7DzL6l41IJ+SmlcVoHgCf1gjo1JtUlX1cXiPBKP7YIly+dlmLyIiNd7BS7KPDelafdKVD+sYqmsVI9PdWMnEtuJ5hSEE+ZMMXXTKXpNtwZtujuCgUnzuwu9MO2zZsxuXLbM81MKKT/4w7E7UV7oRlWsis1grGsddl2c7MuJaZQVrVkBw5nIDmYbaq2I1vQtuq22JaVemHZhYR8l2Scz2k3gneT6poOB4RZ39K7QtAlFmy5abyLyxQ06nBJ5CpEdGi2q9lqjk2duvDsZNp6719+HKLbpDbDMhLqdWKJTRKUJoKn6ISPjwAJ3RLKcXK0tSqMJeGm9CpWXqwSpW1nphcws4kBRA6FR7R8osanLNs1NCWZbDIU2ihzAqpXnCwGmFoWlMtyyHjLJcXdo0MUjeSrBRoAcAoVicXqfKiVGeqSd7FT/AN2OtfnYJr8COu1tbbCapl2VOncpZCE9wxJ8oiZTW89fG1l2yjfcKgqnKtakY4R1fyOf07/p/wDNgOpz+m/8j/NjvyqOfNGXKzzbjSXkqFxSQsKOAukVqdw74Xem+stASpiSVeUahTo9VPG5xPPLhXdy27oHaXo6WW5sTDTYN1r5onEq4lKjjvOELGZZU2pSFpKFJNCkggg8wcoMeOLd2GTJJKqNVLJJJNScSTmTvrzjFYxWCsUkxmsWaxDcs20V5X1S7aT+IrV5ARWKxZ5v5OyZdJ/n5l1z8LaQ38axme3v9jcFbGpqmlrlnNHK+pxX5ikeSYInNE5TZSUq3ShS0ivtEVV5kwRHN3Jstgqijm05kNvIzTYFTsyocyjtgeKfOEv89ZAOapaY8G3h/wC4j0G4K1BxhGWNZ2zm7Rss1o6hxLdd62yXWT3pFe+GY3pXWonLHW+9Cj1h06nRKiVqhSfSFKO1FRfoCQgAZ3btDhvJhKGCsPnHxLcRCXh4PVinABVRA5kgQttcc0y7LNhEw2paHASgOJKiCCmt2tcKj3jCcrBWMRw07sZLP4lVEro3bSpN9MwhCVqSFABVaAEXcaHgTvj0RozPOPyrDzqQlbiAohNaAHFNKknKkeaJNkuOIbTmtSUjqSAPMx6kk2A22htOSEhI6AUHwjGerNf89kFp5pEqQltshKVLK0pSFZVOJrSm4GKFIa33b428ugo33CoEbica1pnT9j6a85/tS0uDkFOEdewn4LhfWJYMxNrCGGlKqaFVOwkbyVZDL9OEEILw2wnkl46iemJV9K0JWk1SoBQPEHEQrdd1kIAYm0gBRVs1n62BUivS6od8M6zZQMstNJxDaEoHRICR8IXOvG0EhmXl69or2hHBKUqT5lX5YXj8w3J5BQVgrGsFYtIUbVi7W1I35mzLP+o0wlY4LcO0dPumvdFd0Ts70icl2qVClgq9lPaV+UKi8aBD022JibzQguKSd2PybQP4Cr3YXN89fcZBWOJIwggEERlwGFFrXlVSs9LWg2Mym97beIvclIoKfcMN2IDTewxOyjrP06Xm+S04jxxT0UY1B07MTVoRmnMgluaUtv5mYCXmjxS52qdyiR3RX6xcJJszsiuVIrMyZUtoHNTJ+cRzKTjTfSkU4/v97+sVxfBFPszWCsawRswWvVlI7a0pcEYIJcPK4Kp/Ncj0PCf1FyFXJl8j1UpQPxG8r+qmG6+4EpUpWAAJPQA18okyu5FmFVGyuWhp7ZzLi2nJi6tCqKGzcNCN1Upp5xZGVhSUqSaggEdDlHle0ZovOuunNa1rPVRqfjHobV1aG3s6WVvSjZnkUdgeQB74J41FJncWRybRH6a6ftyCyxsVuOlIUK0DdDhUmtTjup4Qkratd2beU+8arV7oGQAG7Cn+OcMzXnZvZlpkDIqbUeSu0jwovxhRw3DGNWJzSl4qM1grGsdFnya3nUNNi8tZCQOJPHkBj/8AIdxYhJ7Fl0aHo0nOTpwUsejs81LxdI4FKMjzIhl6n7H2EltVCi31XudwdlHd6yvxxRJ6TE1OSllS5qzL9lSxvX60wv4gcxzh4yrKW0IQgBKUpCUgZBIFAB3RLkZXijrfR9hBAIISUGY1MbQQAKHWTYjslNItSUw7QLgGSVnCqvuLqQeZPHCu2lo0J5Cp6z0i6QVPMV7bTmag2KdoH1h06CHzNsJcStCwFJUCFJORBwP6wptMdBlyAROWaVp2RBWkEkil7tgb0gEgjcOOMOhPh/70J8kK146+4qontCtHPT5kMXy2LqlKUBWgGAww3lPjElaVnotFC5uTQEPpF6Ylk+bjP1knhnXqIitFNKXrPW44whtalpCTtEqVQVrhdWnM092H3a9SeknrsPjQvRlFnsKZSsuXllZUU3akhIyqdyREna8kX2HWb1zaIUi9StAoUOGG6sJv+WGf+ylvcc/vYwdcE/8AZS3uOf3kT/DndlPxYVRWdMrDRIzKpZDm1upQSSm7RRF4bzuIhjajLQqzMsE4pWlY6LF006FI96FRbNprmXnJhyl9w3jQEDlSpJpSm+O3RXSZ6QdU6yEKKklBCwoppUGuBGOHhWHyi3AnjNRnZ6D0qsJE9LLl1qKLxSQoCpSQQcsOFO+EFpnYaJGaVLocLt1KSSU3aKVjTM7iIsg1wT/2Ut7jnn8pFRnJh+0JpSwi+88r1UA03UABJIAAzrhGMcZR32GZZxltuclnSLj7iGWkla1miU/HkAM6xcXGBY7awVBVoOgpTdNRLtHC9X7RW47gRlXtfJ1wSCDJyh20872HnUVOzr/NtEZq3FXHLH1b/obq6aZDL81V2ZSQrE1SggAJFMlXePGNTnz+3f8ARmELPrqt0TMoyXnk0feAqCMUN5hJ5nM9Bwi9pgEZiWTt2VxSSoyIIBBHDQQQQQAEaLH7/e6N4IAFLptoO9Lu+n2bVKkm8ptAxBzJbG8HejrnXCrLYl7V7TdyWnt6Dg1MHeUHJLh+qcK06x6AUYoOm+rdqbvPS9GH8zhRCzzp6qvvCGwycMRPHyhHzsm4ytTbqC2tJoUqFCP3nHwrF3mrVcbIlLZllPJSKJcwD6BxbcyWnkTTiTHFMaHl1Jds95M62MSgdl9A++2TUjpFCl3oTOPRVawVjslbKfdc2LbLi3BmgIN4c1DdTnxixJ0flZPtWg9tHB/srCry68HXMkdBj8I74kt9Tii3toQ9gaPvziiGk3UpxcdUbrbad5Wo/AY790WBNooY/g7KSp15zsrmaEOK4pYH0EcVd+6o+sozP2vRmXbTLSaT6qQUMp5qObi/14Q19EdDpez0/Ji+4fWcUBePT6o5Qqc0t9+hsMd7ETq90DTIpDz1FzKhmMmxvSjieKu7AVrekxkRmJm23bKoxUVSCCCCA0EEEEABBBBAAQQQQAEEEEAEfbFkMTSC2+0l1PMYjocx1EK63NVDzStrZ7xqDUIUopcHsLBHnTrBBGoTa2MTgpK2RiW9IZisqrboAwUpQDYIP1nKC+KVwBOe+LLozqmZbIcnF7dX2aahsdd6+mA5RmCNSyNKkYhjT1YyZZlKEhCEhKRgAkUAHICPrBBCxwQQQQAEEEEABBBBAB//2Q==;" parent="hU6FJw1fOwP_xru4unpn-21" vertex="1">
          <mxGeometry x="3" y="3" width="20" height="20" as="geometry" />
        </mxCell>
        <mxCell id="hU6FJw1fOwP_xru4unpn-24" value="" style="group" parent="hU6FJw1fOwP_xru4unpn-20" vertex="1" connectable="0">
          <mxGeometry x="30" y="170" width="350" height="170" as="geometry" />
        </mxCell>
        <mxCell id="hU6FJw1fOwP_xru4unpn-25" value="" style="verticalLabelPosition=bottom;verticalAlign=top;html=1;shape=mxgraph.basic.rect;fillColor2=none;strokeWidth=1;size=20;indent=5;strokeColor=#7aa116;" parent="hU6FJw1fOwP_xru4unpn-24" vertex="1">
          <mxGeometry width="350" height="170" as="geometry" />
        </mxCell>
        <mxCell id="hU6FJw1fOwP_xru4unpn-26" value="" style="sketch=0;outlineConnect=0;fontColor=#232F3E;gradientColor=none;fillColor=#7AA116;strokeColor=none;dashed=0;verticalLabelPosition=bottom;verticalAlign=top;align=center;html=1;fontSize=12;fontStyle=0;aspect=fixed;pointerEvents=1;shape=mxgraph.aws4.bucket;" parent="hU6FJw1fOwP_xru4unpn-24" vertex="1">
          <mxGeometry x="2.9166666666666665" y="2" width="19.23" height="20" as="geometry" />
        </mxCell>
        <mxCell id="hU6FJw1fOwP_xru4unpn-27" value="" style="group" parent="hU6FJw1fOwP_xru4unpn-24" vertex="1" connectable="0">
          <mxGeometry x="14.583333333333332" y="52" width="320.8333333333333" height="100" as="geometry" />
        </mxCell>
        <mxCell id="hU6FJw1fOwP_xru4unpn-28" value="" style="rounded=0;whiteSpace=wrap;html=1;strokeColor=#0080f0;" parent="hU6FJw1fOwP_xru4unpn-27" vertex="1">
          <mxGeometry width="320.8333333333333" height="100" as="geometry" />
        </mxCell>
        <mxCell id="hU6FJw1fOwP_xru4unpn-29" value="&lt;font style=&quot;font-size: 12px;&quot;&gt;mesh/domains/ &lt;i&gt;&amp;lt;domain name&amp;gt;&lt;/i&gt; /data-products/ &lt;i&gt;&amp;lt;data product name&amp;gt;&lt;/i&gt; / &lt;i&gt;&amp;lt;data product environment&amp;gt;&lt;/i&gt;&amp;nbsp;&lt;/font&gt;/ &lt;i&gt;&amp;lt;data product major version&amp;gt;&lt;/i&gt; /" style="text;html=1;strokeColor=none;fillColor=none;align=center;verticalAlign=middle;whiteSpace=wrap;rounded=0;" parent="hU6FJw1fOwP_xru4unpn-27" vertex="1">
          <mxGeometry x="14.583333333333332" y="46" width="291.66666666666663" height="30" as="geometry" />
        </mxCell>
        <mxCell id="hU6FJw1fOwP_xru4unpn-30" value="" style="html=1;verticalLabelPosition=bottom;align=center;labelBackgroundColor=#ffffff;verticalAlign=top;strokeWidth=2;strokeColor=#0080F0;shadow=0;dashed=0;shape=mxgraph.ios7.icons.folder;" parent="hU6FJw1fOwP_xru4unpn-27" vertex="1">
          <mxGeometry x="4.38" y="3" width="25.63" height="19.5" as="geometry" />
        </mxCell>
        <mxCell id="hU6FJw1fOwP_xru4unpn-31" value="" style="shape=image;verticalLabelPosition=bottom;labelBackgroundColor=default;verticalAlign=top;aspect=fixed;imageAspect=0;image=data:image/jpeg,/9j/2wCEAAgGBgcGBQgHBwcJCQgKDBQNDAsLDBkSEw8UHRofHh0aHBwgJC4nICIsIxwcKDcpLDAxNDQ0Hyc5PTgyPC4zNDIBCQkJDAsMGA0NGDIhHCEyMjIyMjIyMjIyMjIyMjIyMjIyMjIyMjIyMjIyMjIyMjIyMjIyMjIyMjIyMjIyMjIyMv/AABEIARgBGAMBIgACEQEDEQH/xAGiAAABBQEBAQEBAQAAAAAAAAAAAQIDBAUGBwgJCgsQAAIBAwMCBAMFBQQEAAABfQECAwAEEQUSITFBBhNRYQcicRQygZGhCCNCscEVUtHwJDNicoIJChYXGBkaJSYnKCkqNDU2Nzg5OkNERUZHSElKU1RVVldYWVpjZGVmZ2hpanN0dXZ3eHl6g4SFhoeIiYqSk5SVlpeYmZqio6Slpqeoqaqys7S1tre4ubrCw8TFxsfIycrS09TV1tfY2drh4uPk5ebn6Onq8fLz9PX29/j5+gEAAwEBAQEBAQEBAQAAAAAAAAECAwQFBgcICQoLEQACAQIEBAMEBwUEBAABAncAAQIDEQQFITEGEkFRB2FxEyIygQgUQpGhscEJIzNS8BVictEKFiQ04SXxFxgZGiYnKCkqNTY3ODk6Q0RFRkdISUpTVFVWV1hZWmNkZWZnaGlqc3R1dnd4eXqCg4SFhoeIiYqSk5SVlpeYmZqio6Slpqeoqaqys7S1tre4ubrCw8TFxsfIycrS09TV1tfY2dri4+Tl5ufo6ery8/T19vf4+fr/2gAMAwEAAhEDEQA/AH0UUV8kfeBRRRQAUUUUAFFFFABRRRQAUUUUAFFFFABRRRQAUUUUAFFFFABRRRQAUUUUAFFFFABRRRQAUUUUAFFFFABRRRQAUUUUAFFFFABRRRQAUUUUAFFFFABRRRQAUUUUAFFFFABRRRQAUUUUAFFFFABRRRQAUUUUAFFFFABRRRQAUUUUAFFFFABRRRQAUUUUAFFFFABRRRQAUUUUAFFFFABRRRQAUUUUAFFFFABRRRQAUUUUAFFFFABRRRQAUUUUAFFFFABRRRQAUUUUAFFFFABRRRQAUUUUAFFFFABRRRQAUUUUAFFFFABRRRQAUUUUAFFFFABRRRQAUUUUAFFFFABRRRQAUUUUAFFFFABRRRQAUUUUAFFFFABRRRQAUUUUAFFFFABRRRQAUUUUAFFFFABRRRQAUUUUAFFFFABRRRQAUUUUAFFFFABRRRQAUUUUAFFFFABRRRQAUUUUAFFFFABRRRQAUUUUAFFFFABRRRQAUUUUAFFFFABRRRQAUUUUAFFFFABRRRQAUUUUAFFFFABRRRQAUUUUAFFFFABRRRQAUUUUAFFFFABRRRQAUUUUAFFFFABRRRQAUUUUAFFFFABRRRQAUUUUAFFFFABRRRQAUUUUAFFFFABRRRQAUUUUAFFFFABRRRQAUUUUAFFFFABRRRQAUUUUAFFFHWgAorstE8BT3kSXGoytbxOMiJB+8/HPT9fwroj4C0Ty9vlzZ/veac/4V2QwNaava3qedVzTD05ct7+h5XRXW+I/Bh0i2e9tbkPbLjKykBx9D0NYvh/TotW1y2sZ2dY5d2ShAPCk9wfSsJ0JwmqclqzphiqU6TqxeiMyius8WeF7LQbO3mtpbh2kk2ESspGMZ7AVydKrSlSlyy3LoV4V4c8NgoorrfD/AIJm1OJLu9doLZxlVX77j156CilSnVlywQq+Ip0I81R2OSor1mPwNoKJta1dz/eaZs/oRWVqvw8geMyaZO0cg/5ZynKn6HqP1rqll1ZK61OGGb4eUrO6PO6KkuLeW1uHgnjaOWM7WVuoNdR4P8OWOuQXT3ZlzEyhdjY6g+1ctOlKpPkW53Vq8KNP2ktjk6K3vFuj22iatHbWpfy2gEh3tk5LMP6ViQoJJ40PRmAP50pwcJuD3Kp1Y1KaqR2YyivR9U8D6TZ6TeXMRuPMigeRcyDGQpI7V5xV1sPOi0pdTLDYuniE3DoFFemD4daSR/x83v8A32n/AMTSN8OdL2nbdXgbHBLKR/6DXR/Z1fscv9rYbz+480orqtY8C3+nRNPbSC7iXkhRhwPp3/D8q5ZSMgsCV7gHBrlqUp0naasd1HEU60eam7iUV6BpXg3QtW0+O7t7q92uOQXTKnuD8tXf+FdaT/z83v8A32n/AMTXTHAVpK6t95xyzXDxdne/oeZUV6b/AMK60n/n5vf++1/+Jrzi7iW3vZ4VJKxyMgJ64BxWNbDVKKTn1N8PjKWIbVPoQ0V3+keBdN1DSLW7luLtXmjDsFZcAn0+Wr3/AArrSf8An5vf++0/+JraOArSSaRhLNcPFuLvp5HmVFd7qPw62xs+nXjFh0jnA5/4EP8ACuFlikgmeKVCkiMVZT1BHWsKtCpS+NHTh8VSxC/dsZRRXoOleALO40u3nvZrpLiRN7KjKAM8gcqe2KKNCdZ2gGIxVPDpOo9zz6irmqWD6ZqdxZvn905AJ7r2P5YqnWUouLszeMlKKktmFFFFIYV0vgjS01DXRLKMx2q+Zj1bPH+P4VzVdp8OZ0TU7yEn5niBX8Dz/OujCRUq0Uzkx8pRw03HsbvjTxDPo9tFbWhC3E+Tv7oo9Pc/0Nec/wBqah53nfbrnzc53+ac5/Out+JFvILuyucfuyhjz6EHP9f0rh61x1SftnFvRHPllGn9XUravc0NR1vUdVjiS9uWlSIfKMADPqcdT71e8F/8jbY/8D/9AasGt7wX/wAjbY/8D/8AQGrGjJyrRcnfVHTiIRhhpxirKzOp+JH/ACC7P/ruf/QTXnFej/Ej/kF2f/Xc/wDoJrzitsw/js58p/3ZerNbwzp6an4gtbaZd0JJZx6gAnH8h+NeoeINVGh6NJdBQzjCRqehY9Pw7/hXnvgWZYvFEKt/y0jdB9cZ/pXX+PrWS58OBo1LeRMsjADPGCP6104R8mFlOG5xY9KpjYU5/DoefT+INXuJvNfUrkNnI2SFQPoBwK7XwT4luNRkk0++k8yVV3xyHqwHUH1rziup8BWjz+IhcDIS3jZmPYkjaB+pP4Vy4SrU9stb3O7H4ej9Xk7JWWhqfEbT0AtdRRQGLGKQj+LjI/kam+G3/HrqH++n8jU/xGkUaPaxfxNcbh9ApB/mKrfDZx5Oop/EGjP/AKF/hXbZRxyt/Wh515Syx36P9TM+Iv8AyMMH/Xqv/oTVy1t/x9Q/76/zrq/iLGw1y3kI+VrcKD7hmz/MVy1mjSX1vGgLO0qqAO5JrgxSf1iXqepgWvqkfQ9l13/kXtS/69ZP/QTXide1a+4Xw7qJJxm2kH/jprxWurM/jicWS/w5+p7J4ollg8NXksMjxyKg2sjEEcjuK8rTXdXjcMup3mR6zMR+RNeo+Lf+RVvv9wf+hCvHqWZSlGorPoPKKcJUpcyT1/Q9S8H+I5dbglt7vBuoQCXAwHU98diP6iuR8b6Ymn68zxLtjuV83A/vZ+b/AB/GtL4c2kpv7q8wwiWPys9ixIP6AfrSfEe6WTULO2H3oo2c/wDAiB/7LVVG6mDUp7kUYqlmLhS2e/3HN6WdYkLwaXJef33S3dh7ZIB+laX2bxh/1Fv+/j/41X8L61BoWpSXU8UkgaIxhUx3IPf6V1v/AAsew/58bn81/wAawoRpOF51GmdWJlXjUap0lJdzk7t/E9jD511PqcMecbnlcDP51iMzOxZmLMxySTkk113ibxfa65pQtIbaaNvMD7nIxxn0+tchWGI5VK0JXR04TncOapBRfkew6IceDrUjr9l/pXkv267/AOfqb/v4a9e8OhT4VsQ+Nn2cbs+mKp2uheFb0sLWC0nK/e8qbdj64NepXw860IcrtoeJhsVDD1KnPFu7/wAyj4B1O+v7S7ju5XmSEqI3fk85yM9+g/OuZ8dxRx+J5CigF4kZsdz0/oK7m/1TSfCdksSQ+XuBMcMSffPc56fUmvLdU1GbVdRmvZ+HkPCjoo6AflWGMkoUVRbvI6cvhKpiZV4x5YsueF9L/tbXoIHBMSfvJP8AdHb8TgfjXo+ra+mm6xptiSv+kP8Avc9VU8Kf++v5Gsv4f6X9m0t79wfMuThc9kH+Jz+lVNf8I6xq+tzXqT2qoSBGGdgVAHH8P4/jWlGFSjh04K8m/wADHE1KWIxTjUlaMU18/wDh/wAhnxE03/j31KNP+mUpA/FSf1H5VwVe0XOny6l4feyvjH58sW2Rk5Xf/eHTvzXjU0TwTyQyDDxsVYehBwa5swpctTnXU7Mpr89J0nvH8hlFFFcB6wVa06/l0zUIbyH78TZx2I7j8RVWimm07oUoqScXsz2G0v8ASPFWntGQsy4HmQuMMh/z3FZP/CvNMNwX+0XIizny8jp6ZxmvNkkeJw8bsjjoynBFXxr+sCLyxql3tzn/AFzZ/POa9D67Tml7WF2eR/Z1ak37CpZM7Hxdpfh+w0dIlCW90g/cCMZd/ZvUe56fpXN+C/8AkbbH/gf/AKA1Ybu8rl5HZ2PVmOSaI5JIZBJE7I46MpwR+Nc88QpVVUUbJHXTwkoYeVJyu3fV+Z7NrehWuvW8UN1JMixtvBiIBzjHcGsT/hXWkf8APze/99p/8TXnn9pX/wDz+3P/AH9b/Gj+0r//AJ/bn/v63+NdM8ZRm+aVO7OOnl2Jpx5YVbI1/EWmx+GNdt10+aYlY1mVpCCQ25h2A44rv9D1+y8QWO3KLPtxNbt+vHcV5HLPLO4eaV5GAxl2JOPxpqO0bh0Yq46MpwRWNLF+yqNxXuvodFfAe3pRU5e8up6lceAdFnnMqfaIQTkpG42/qDWtFDpnh3TW2eXbWycszHqfc9Sa8qXxLrSKFGp3GB6vk/mao3V9dX0m+6uJZm9XYmuj67Rh71OGpyf2biKlo1al4mp4o1467qQdAVtogVhU9fcn3P8AQUnhfWV0TWUnlJ+zyL5cuOcD1x7H+tYtFcHtp+09r1PV+rU/Y+xtoe0XlhpniOxTzds8LDdHJG3I9wap6T4P0vR7r7TEJZZR91pmB2fTAFeW2mpX1gc2l3ND6hHIB+o6VYn8QavcxGOXUbhkPUb8Z/Ku/wCvUZNTlD3jyf7MxEU6cKnuv1Ov8c+IofszaTaSBpGI89l6KBztz65xXn1FFcNevKtPnZ6uFw0cPT5InuOoWMWqadLZzM6xygBihAI5zxmuei+H2jRSBnku5VHVHkGD+QB/WvOf7Svv+f25/wC/rf40jaheuu1ru4YHsZCf612zxtGbvKF2ebTyzEU1ywq2R6pfa1o3huz8iNowUGFt4cbs+47fU15ZqWoTapqE15OfnkbOOyjsB9BVXrSgkEEEgjoRXNiMVKtZWskduEwMMPeV7yfU7nQvAcN5psdxqT3MM0nzCOMgbV7ZyDzWn/wrrSf+fm9/77T/AOJrzz+0r7/n9uf+/rf40f2lf/8AP7c/9/W/xrSOIw8Uk6dzCeFxcpNqrY9D/wCFdaR/z83v/faf/E15xdxLb3s8KElY5GQE9cA4qT+0r7/n9uf+/rf41WJLMWYkknJJ71jXq0ppckbHRhaFam26s+Y9g0T/AJE61/69f6V5XpWqXOkXyXVsxBB+ZM8OPQ1Et9dpGI1up1QDAUSEDH0qvV1sV7Tl5dHEjDYL2XtOd3Uj12WLT/GPh8MrAbh8r4y0TjqP89RXmn9h3ia4mkyRlZ2cLxyMf3vpjmqUN1cW4IhnljB5IRyM/lSm7uTKJTcSmRRgOXOQPrRWxEK1nKOq38xYbCVMPzRhL3Xt5HrHiDUh4c8P5tVQOu2GBSOB/wDqANcP/wAJ3rn/AD0h/wC/Qrn5rq4uFCzXEsgByA7k4/OoadbGznK8HZCw2W06cbVEpPuej+EfFV1quoS2l+8ZZk3RbVxyOo/Ln8Kw/Hml/Y9YW8jXEV0MnA6OOv58H865aOR4nDxuyOOjKcEVJNd3NwoWa4lkUHIDuSM/jSnivaUfZz1fccMD7LEe1puy7ENFFFch6AUUUUAFFFFABRRRQAUUUUAFFFFABRRRQAUUUUAFFFFABRRRQAUUUUAFFFFABRRRQAUUUUAFFFFABRRRQAUUUUAFFFFABRRRQAUUUUAFFFFABRRRQAUUUUAFFFFABRRRQAUUUUAFFFFABRRRQAUUUUAFFFFABRRRQAUUUUAFFFFABRRRQAUUUUAFFFFABRRRQAUUUUAFFFFABRRRQAUUUUAFFFFABRRRQAUUUUAFFFFABRRRQAUUUUAFFFFABRRRQAUUUUAFFFFABRRRQAUUUUAFFFFABRRRQAUUUUAFFFFABRRRQAUUUUAFFFFABRRRQAUUUUAFFFFABRRRQAUUUUAFFFFABRRRQAUUUUAFFFFABRRRQAUUUUAFFFFABRRRQAUUUUAFFFFABRRRQAUUUUAFFFFABRRRQAUUUUAFFFFABRRRQAUUUUAFFFFABRRRQAUUUUAFFFFABRRRQAUUUUAFFFFABRRRQAUUUUAFFFFABRRRQAUUUUAFFFFABRRRQAUUUUAFFFFABRRRQAUUUUAFFFFABRRRQAUUUUAFFFFABRRRQAUUUUAFFFFABRRRQAUUUUAFFFFABRRRQAUUUUAFFFFABRRRQAUUUUAFFFFABRRRQAUUUUAFFFFABRRRQAUUUUAFFFFABRRRQAUUUUAFFFFABRRRQAUUUUAFFFFABRRRQAUUUUAFFFFABRRRQAUUUUAFFFFABRRRQAUUUUAFFFFABRRRQAUUUUAFFFFABRRRQAUUUUAFFFFABRRRQB//2Q==;" parent="hU6FJw1fOwP_xru4unpn-1" vertex="1">
          <mxGeometry x="359" y="-1160" width="80" height="80" as="geometry" />
        </mxCell>
        <mxCell id="hU6FJw1fOwP_xru4unpn-32" value="3 - Map Witboost users and groups requesting access to CDP identities" style="shape=process;whiteSpace=wrap;html=1;backgroundOutline=1;hachureGap=4;fontFamily=Nunito;fontSize=20;align=left;spacingLeft=8;fontSource=https%3A%2F%2Ffonts.googleapis.com%2Fcss%3Ffamily%3DNunito;" parent="hU6FJw1fOwP_xru4unpn-1" vertex="1">
          <mxGeometry x="429" y="-829" width="620" height="60" as="geometry" />
        </mxCell>
        <mxCell id="hU6FJw1fOwP_xru4unpn-33" value="4 - Add mapped users and groups to the user role &lt;br&gt;&amp;nbsp; &amp;nbsp;- Remove user and groups no more allowed to access from the user role" style="shape=process;whiteSpace=wrap;html=1;backgroundOutline=1;hachureGap=4;fontFamily=Nunito;fontSize=20;align=left;spacingLeft=8;fontSource=https%3A%2F%2Ffonts.googleapis.com%2Fcss%3Ffamily%3DNunito;" parent="hU6FJw1fOwP_xru4unpn-1" vertex="1">
          <mxGeometry x="429" y="-728" width="620" height="78" as="geometry" />
        </mxCell>
        <mxCell id="hU6FJw1fOwP_xru4unpn-34" style="edgeStyle=orthogonalEdgeStyle;rounded=0;orthogonalLoop=1;jettySize=auto;html=1;curved=1;entryX=0;entryY=0.43;entryDx=0;entryDy=0;entryPerimeter=0;exitX=1;exitY=0.5;exitDx=0;exitDy=0;" parent="hU6FJw1fOwP_xru4unpn-1" source="hU6FJw1fOwP_xru4unpn-33" target="hU6FJw1fOwP_xru4unpn-22" edge="1">
          <mxGeometry relative="1" as="geometry">
            <mxPoint x="1470" y="-989.25" as="targetPoint" />
            <mxPoint x="1030" y="-843.25" as="sourcePoint" />
          </mxGeometry>
        </mxCell>
        <mxCell id="hU6FJw1fOwP_xru4unpn-35" value="API" style="edgeLabel;html=1;align=center;verticalAlign=middle;resizable=0;points=[];fontFamily=Nunito;fontSource=https%3A%2F%2Ffonts.googleapis.com%2Fcss%3Ffamily%3DNunito;fontSize=16;" parent="hU6FJw1fOwP_xru4unpn-34" vertex="1" connectable="0">
          <mxGeometry x="0.0402" y="7" relative="1" as="geometry">
            <mxPoint y="3" as="offset" />
          </mxGeometry>
        </mxCell>
      </root>
    </mxGraphModel>
  </diagram>
</mxfile>
